<svg width="78" height="78" viewBox="0 0 78 78" fill="none" xmlns="http://www.w3.org/2000/svg">
<g clip-path="url(#clip0)">
<path fill-rule="evenodd" clip-rule="evenodd" d="M57.4674 57.7682C57.4877 60.7741 57.4976 63.7808 57.4606 66.7866C57.415 70.4716 54.7824 73.3199 51.1037 73.7342C47.7969 74.1068 44.5717 71.782 43.7279 68.3893C43.6167 67.8963 43.5653 67.3917 43.5749 66.8865C43.5749 62.9684 43.4507 59.0435 43.6412 55.1342C43.8896 50.0336 46.5061 46.3255 50.9523 43.8805C51.1213 43.8145 51.2954 43.7627 51.473 43.7257C51.6677 44.7505 51.9076 45.7284 52.0103 46.7203C52.0044 46.9081 51.9577 47.0924 51.8735 47.2603C51.7892 47.4282 51.6694 47.5758 51.5224 47.6928C48.5402 49.8701 47.119 52.7924 47.1488 56.4724C47.1757 59.8152 47.1457 63.1601 47.1457 66.504C47.1457 68.5958 48.5009 70.113 50.4075 70.1667C52.3444 70.2212 53.8553 68.719 53.8649 66.5911C53.8934 60.2411 53.9649 53.8894 53.8523 47.5412C53.7307 40.6608 48.4557 35.0333 41.8243 34.4759C34.8851 33.8929 28.8881 38.3397 27.4506 45.1672C27.2698 46.0267 27.1774 46.9024 27.1747 47.7807C27.1562 58.1841 27.1544 68.5875 27.1692 78.9908C27.1729 81.4086 28.5317 83.0491 30.7552 83.4518C33.2269 83.8994 35.6495 82.0162 35.7097 79.4882C35.7804 76.5175 35.7397 73.544 35.7417 70.5717C35.7441 66.6872 35.7441 62.8028 35.7417 58.9185C35.7417 54.2245 33.6995 50.7058 29.6907 48.2821C29.4035 48.1085 29.178 47.6265 29.1524 47.2714C29.1439 46.6642 29.2007 46.0579 29.3218 45.4628C29.4014 45.085 29.501 44.7116 29.62 44.3443C31.5975 45.074 33.3861 46.2382 34.8537 47.7511C37.6478 50.5861 39.2572 53.9818 39.2906 57.9851C39.3514 65.1788 39.3694 72.3742 39.2894 79.5674C39.2444 83.6105 36.2257 86.6381 32.0707 87.0933C28.4255 87.4928 24.8073 84.9648 23.848 81.2881C23.6563 80.5011 23.5641 79.6931 23.5737 78.8831C23.5558 68.6149 23.5531 58.3466 23.5656 48.0783C23.582 39.2897 29.5037 32.2383 38.1982 31.0036C48.355 29.5613 56.4875 36.8862 57.29 45.9231C57.6389 49.8458 57.4411 53.8181 57.4674 57.7682ZM40.4839 27.5741C39.126 27.5643 37.8014 27.1521 36.6776 26.3897C35.5539 25.6273 34.6813 24.5489 34.1703 23.2908C33.6592 22.0326 33.5327 20.6512 33.8065 19.3211C34.0804 17.991 34.7424 16.772 35.7089 15.8181C36.6754 14.8641 37.903 14.2181 39.2366 13.9617C40.5701 13.7053 41.9497 13.8499 43.2011 14.3774C44.4525 14.9048 45.5194 15.7914 46.267 16.9251C47.0146 18.0587 47.4094 19.3886 47.4014 20.7465C47.3991 21.6501 47.218 22.5443 46.8685 23.3775C46.5189 24.2107 46.0079 24.9665 45.3648 25.6012C44.7217 26.2359 43.9593 26.737 43.1216 27.0756C42.2839 27.4142 41.3874 27.5836 40.4839 27.5741ZM40.6257 17.4185C40.1881 17.3995 39.7512 17.4694 39.3414 17.6238C38.9315 17.7783 38.5572 18.0141 38.2409 18.3172C37.9247 18.6202 37.6731 18.9841 37.5013 19.387C37.3295 19.7899 37.2411 20.2234 37.2413 20.6614C37.2382 21.5274 37.5739 22.3602 38.1768 22.9818C38.7797 23.6034 39.6019 23.9644 40.4675 23.9877C41.3354 24.0035 42.1742 23.6752 42.8008 23.0745C43.4274 22.4739 43.7909 21.6497 43.8118 20.7819C43.8327 19.9142 43.5094 19.0734 42.9125 18.4432C42.3156 17.8131 41.4935 17.4447 40.6259 17.4187L40.6257 17.4185Z" fill="#2E3192"/>
<path fill-rule="evenodd" clip-rule="evenodd" d="M21.9466 37.6985C20.1376 37.6849 18.4078 36.9546 17.1364 35.6677C15.865 34.3808 15.1557 32.6423 15.164 30.8333C15.1723 29.0242 15.8976 27.2923 17.1808 26.0172C18.464 24.742 20.2004 24.0276 22.0094 24.0306C25.909 24.0592 28.8167 26.9667 28.8062 30.8254C28.7948 34.6929 25.7905 37.7042 21.9466 37.6985ZM22.0682 27.5554C21.1813 27.5323 20.3215 27.8622 19.6777 28.4726C19.0338 29.083 18.6586 29.9239 18.6343 30.8108C18.6176 31.4711 18.7969 32.1215 19.1496 32.68C19.5024 33.2385 20.0127 33.6798 20.6162 33.9484C21.2196 34.2169 21.8892 34.3006 22.5402 34.1888C23.1912 34.0771 23.7944 33.7748 24.2737 33.3204C24.7531 32.8659 25.087 32.2796 25.2332 31.6355C25.3795 30.9913 25.3315 30.3183 25.0955 29.7014C24.8594 29.0845 24.4458 28.5514 23.9069 28.1695C23.368 27.7875 22.728 27.5738 22.0678 27.5554H22.0682ZM22.2647 43.5057C22.1229 44.6233 22.0631 45.636 21.8257 46.6055C21.7574 46.8842 21.2004 47.1158 20.825 47.236C16.1071 48.7437 13.1733 51.9382 12.4314 56.7943C12.0327 59.404 12.291 62.1167 12.2839 64.7829C12.2742 68.4297 12.3022 72.0764 12.2969 75.7232C12.2951 77.0508 11.5246 78.0018 10.51 78.0004C9.49538 77.9989 8.64609 77.0887 8.61732 75.7744C8.56343 73.3445 8.57437 70.9121 8.59707 68.4809C8.63151 64.9047 8.66959 61.328 8.76117 57.7528C8.93581 50.9394 14.6922 44.4731 21.4032 43.5102C21.6903 43.4915 21.9781 43.49 22.2653 43.5057H22.2647Z" fill="#009FE0"/>
<path fill-rule="evenodd" clip-rule="evenodd" d="M59.2238 42.5509C60.5824 42.9804 62.0243 43.2422 63.2849 43.869C68.2746 46.3492 71.0138 50.3941 71.1195 56.0188C71.239 62.3633 71.2411 68.7101 71.2743 75.0558C71.2753 75.6631 71.2074 76.2685 71.0717 76.8604C70.8648 77.7721 70.2107 78.2346 69.3006 78.2113C68.4402 78.1892 67.805 77.7293 67.635 76.8582C67.5299 76.226 67.4858 75.5852 67.5031 74.9446C67.5056 68.5978 67.5969 62.2499 67.5048 55.9045C67.4456 51.8173 65.4486 48.5893 61.6667 47.2084C59.2167 46.3137 59.443 44.6182 59.0362 42.9265L59.2238 42.5509ZM54.9308 33.9529C54.8848 30.8353 57.5185 28.1632 60.6965 28.1031C61.4747 28.0878 62.2482 28.2262 62.9728 28.5105C63.6974 28.7948 64.3587 29.2194 64.9188 29.7598C65.479 30.3002 65.9269 30.9459 66.237 31.6598C66.5471 32.3737 66.7132 33.1418 66.7258 33.92C66.7384 34.6983 66.5972 35.4713 66.3104 36.1949C66.0236 36.9185 65.5968 37.5783 65.0544 38.1366C64.5121 38.6948 63.8648 39.1406 63.1499 39.4482C62.4349 39.7558 61.6662 39.9192 60.8879 39.9291C57.5816 39.9759 54.981 37.367 54.9308 33.9529ZM63.0954 33.9952C63.098 33.4011 62.866 32.83 62.45 32.4059C62.0339 31.9818 61.4674 31.7389 60.8734 31.73C60.5713 31.7246 60.2711 31.7791 59.9901 31.8901C59.7091 32.0012 59.4528 32.1667 59.236 32.3772C59.0192 32.5876 58.8462 32.8389 58.7268 33.1164C58.6074 33.394 58.5441 33.6924 58.5405 33.9946C58.5368 34.2967 58.5929 34.5965 58.7056 34.8769C58.8182 35.1573 58.9852 35.4126 59.1968 35.6282C59.4085 35.8438 59.6607 36.0155 59.9389 36.1333C60.2171 36.2511 60.5159 36.3128 60.818 36.3148C61.1213 36.3169 61.4219 36.2581 61.7019 36.1417C61.9819 36.0253 62.2357 35.8538 62.4481 35.6374C62.6604 35.4209 62.8271 35.1639 62.9382 34.8818C63.0492 34.5996 63.1023 34.2979 63.0944 33.9948L63.0954 33.9952Z" fill="#FBB03D"/>
</g>
<defs>
<clipPath id="clip0">
<rect width="78" height="78" fill="white"/>
</clipPath>
</defs>
</svg>
