<svg width="80" height="80" viewBox="0 0 80 80" fill="none" xmlns="http://www.w3.org/2000/svg">
<circle cx="40" cy="40" r="40" fill="#57576D"/>
<path fill-rule="evenodd" clip-rule="evenodd" d="M70.2707 30.2423H47.8836C47.7559 30.2423 47.6334 30.1871 47.5431 30.0888C47.4529 29.9906 47.4021 29.8574 47.4021 29.7185C47.4021 29.5795 47.4529 29.4463 47.5431 29.3481C47.6334 29.2498 47.7559 29.1946 47.8836 29.1946H70.2707C70.3983 29.1946 70.5208 29.2498 70.6111 29.3481C70.7014 29.4463 70.7521 29.5795 70.7521 29.7185C70.7521 29.8574 70.7014 29.9906 70.6111 30.0888C70.5208 30.1871 70.3983 30.2423 70.2707 30.2423ZM57.7532 38.8508C50.7494 38.4965 49.1649 35.3578 47.9077 31.2899H70.2466C69.0033 35.3109 67.5341 38.4234 60.6418 38.8369V42.2899H61.6047C61.9878 42.2899 62.3551 42.4554 62.626 42.7501C62.8969 43.0448 63.049 43.4445 63.049 43.8613C63.049 44.2781 62.8969 44.6778 62.626 44.9725C62.3551 45.2672 61.9878 45.4327 61.6047 45.4327H44.1524V46.0707C44.1524 47.9342 45.914 51.2331 48.0039 52.7661C50.3522 54.4884 53.0591 54.3375 53.0591 54.3375V58.528H28.987V54.5994C28.987 54.5994 31.8352 54.4161 34.0421 52.7661C36.2883 51.0865 37.8936 47.9208 37.8936 45.9256V45.4327H20.4414C20.0583 45.4327 19.6909 45.2672 19.4201 44.9725C19.1492 44.6778 18.997 44.2781 18.997 43.8613C18.997 43.4445 19.1492 43.0448 19.4201 42.7501C19.6909 42.4554 20.0583 42.2899 20.4414 42.2899H21.4042V38.8369C14.5114 38.4234 13.0423 35.3109 11.7995 31.2899H34.1384C32.8811 35.3578 31.2979 38.4965 24.2929 38.8508V42.2899H37.9057C37.9654 41.6439 38.2435 41.045 38.686 40.6094C39.1286 40.1739 39.7041 39.9327 40.3009 39.9327H41.7452C42.3419 39.9327 42.9174 40.1739 43.36 40.6094C43.8026 41.045 44.0807 41.6439 44.1404 42.2899H57.7532V38.8508ZM41.023 42.028C40.6898 42.028 40.364 42.1355 40.0869 42.3369C39.8098 42.5384 39.5938 42.8247 39.4662 43.1597C39.3387 43.4947 39.3053 43.8633 39.3704 44.219C39.4354 44.5746 39.5959 44.9013 39.8315 45.1577C40.0672 45.4141 40.3674 45.5887 40.6943 45.6594C41.0212 45.7302 41.36 45.6938 41.6679 45.5551C41.9758 45.4163 42.2389 45.1813 42.4241 44.8799C42.6092 44.5784 42.7081 44.2239 42.7081 43.8613C42.7081 43.3751 42.5305 42.9088 42.2145 42.5649C41.8985 42.2211 41.4699 42.028 41.023 42.028ZM34.1625 30.2423H11.7754C11.6477 30.2423 11.5252 30.1871 11.435 30.0888C11.3447 29.9906 11.2939 29.8574 11.2939 29.7185C11.2939 29.5795 11.3447 29.4463 11.435 29.3481C11.5252 29.2498 11.6477 29.1946 11.7754 29.1946H34.1625C34.2902 29.1946 34.4126 29.2498 34.5029 29.3481C34.5932 29.4463 34.6439 29.5795 34.6439 29.7185C34.6439 29.8574 34.5932 29.9906 34.5029 30.0888C34.4126 30.1871 34.2902 30.2423 34.1625 30.2423Z" fill="white"/>
</svg>
