<svg width="80" height="80" viewBox="0 0 80 80" fill="none" xmlns="http://www.w3.org/2000/svg">
<circle cx="40" cy="40" r="40" fill="#57576D"/>
<path d="M42.5522 48.3822V23.3889C42.5522 22.7111 42.283 22.0611 41.8037 21.5818C41.3245 21.1025 40.6745 20.8333 39.9967 20.8333C39.3189 20.8333 38.6689 21.1025 38.1896 21.5818C37.7104 22.0611 37.4411 22.7111 37.4411 23.3889V48.3822C36.6686 48.8282 36.0263 49.4685 35.578 50.2396C35.1297 51.0108 34.891 51.8858 34.8856 52.7777C34.8856 54.1333 35.4241 55.4333 36.3826 56.3918C37.3411 57.3504 38.6411 57.8889 39.9967 57.8889C41.3522 57.8889 42.6523 57.3504 43.6108 56.3918C44.5693 55.4333 45.1078 54.1333 45.1078 52.7777C45.1024 51.8858 44.8637 51.0108 44.4154 50.2396C43.967 49.4685 43.3247 48.8282 42.5522 48.3822ZM51.4967 42.5555V23.3889C51.4967 20.3389 50.2851 17.4138 48.1284 15.2571C45.9717 13.1005 43.0467 11.8889 39.9967 11.8889C36.9467 11.8889 34.0216 13.1005 31.865 15.2571C29.7083 17.4138 28.4967 20.3389 28.4967 23.3889V42.5555C26.7304 44.557 25.5172 46.985 24.9772 49.5992C24.4372 52.2135 24.589 54.9234 25.4176 57.461C26.2463 59.9985 27.723 62.2758 29.7018 64.0675C31.6806 65.8592 34.0929 67.1033 36.7 67.6766C37.783 67.9235 38.8867 68.0689 39.9967 68.1111C42.9627 68.1249 45.8691 67.2781 48.3636 65.6734C50.8581 64.0687 52.8337 61.775 54.0508 59.0702C55.268 56.3653 55.6746 53.3656 55.2212 50.4343C54.7679 47.5031 53.4741 44.7663 51.4967 42.5555ZM46.3856 60.6233C45.0396 61.7177 43.4372 62.4515 41.7293 62.7557C40.0214 63.0599 38.2642 62.9244 36.6231 62.362C34.982 61.7997 33.511 60.8289 32.3487 59.5411C31.1863 58.2534 30.3708 56.691 29.9789 55.0011C29.5841 53.2928 29.6353 51.5117 30.1276 49.8289C30.6199 48.1462 31.5367 46.6183 32.79 45.3922C33.0315 45.1555 33.2236 44.8733 33.3552 44.5618C33.4868 44.2503 33.5553 43.9159 33.5567 43.5777V23.3889C33.5567 21.6944 34.2298 20.0694 35.4279 18.8712C36.6261 17.6731 38.2511 17 39.9456 17C41.64 17 43.265 17.6731 44.4632 18.8712C45.6613 20.0694 46.3345 21.6944 46.3345 23.3889V43.68C46.3359 44.0181 46.4043 44.3526 46.5359 44.664C46.6676 44.9755 46.8597 45.2577 47.1011 45.4944C48.1457 46.5035 48.9633 47.7237 49.4993 49.0735C50.0354 50.4234 50.2776 51.872 50.2099 53.3228C50.1422 54.7737 49.7661 56.1934 49.1067 57.4875C48.4472 58.7816 47.5196 59.9203 46.3856 60.8277V60.6233Z" fill="white"/>
</svg>
