<svg width="28" height="28" viewBox="0 0 28 28" fill="none" xmlns="http://www.w3.org/2000/svg">
<path d="M14 0C6.26768 0 0 6.26768 0 14C0 21.7323 6.26768 28 14 28C21.7323 28 28 21.7323 28 14C28 6.26768 21.7323 0 14 0ZM14 25.8125C7.47595 25.8125 2.1875 20.5241 2.1875 14C2.1875 7.47595 7.47595 2.1875 14 2.1875C20.5241 2.1875 25.8125 7.47595 25.8125 14C25.8125 20.5241 20.5241 25.8125 14 25.8125Z" fill="#313132"/>
<path d="M12.2714 12.2756L12.6525 10.7538L7.89465 7.89893L10.7487 12.6567L12.2714 12.2756Z" fill="#313132"/>
<path d="M17.2419 12.6422L20.0771 7.875L15.3398 10.741L15.7227 12.2688L17.2419 12.6422Z" fill="#313132"/>
<path d="M15.7328 15.7202L15.3577 17.2455L20.1249 20.0824L17.2521 15.334L15.7328 15.7202Z" fill="#313132"/>
<path d="M10.7487 15.3491L7.89465 20.1061L12.6627 17.2435L12.2782 15.7302L10.7487 15.3491Z" fill="#313132"/>
<path d="M14 7L12.6003 12.5995L7 14L12.6055 15.4014L14.0273 21L15.4073 15.392L21 13.9727L15.3988 12.5944L14 7ZM14 14.875C13.5172 14.875 13.125 14.4828 13.125 14C13.125 13.5172 13.5172 13.125 14 13.125C14.4828 13.125 14.875 13.5172 14.875 14C14.875 14.4828 14.4828 14.875 14 14.875Z" fill="#313132"/>
</svg>
