<svg width="75" height="70" viewBox="0 0 75 70" fill="none" xmlns="http://www.w3.org/2000/svg">
<path fill-rule="evenodd" clip-rule="evenodd" d="M30.2815 22.3481C30.0347 22.6139 29.8653 22.7958 29.6966 22.9781C25.9106 27.0715 22.1242 31.1648 18.3376 35.2581C17.0289 36.6727 15.6839 38.0562 14.403 39.4967C13.7701 40.2273 13.447 41.1773 13.5028 42.1437C13.5585 43.1101 13.9887 44.0163 14.7014 44.6687C15.7867 45.664 17.8409 45.9434 19.4325 44.1613C21.9098 41.3869 24.486 38.7018 27.0315 35.9896C27.6647 35.3148 28.4608 35.2576 29.0225 35.792C29.6054 36.3458 29.5885 37.1034 28.9573 37.8018C28.2661 38.5664 27.5635 39.3203 26.8612 40.0743C24.9768 42.0977 23.0733 44.103 21.2097 46.1453C20.8727 46.5043 20.6108 46.9274 20.4396 47.3896C20.2684 47.8519 20.1913 48.3439 20.2129 48.8366C20.2345 49.3293 20.3543 49.8126 20.5653 50.258C20.7763 50.7034 21.0742 51.1018 21.4413 51.4297C22.8572 52.7093 24.6727 52.4765 26.1953 50.8372C28.6585 48.185 31.1264 45.5372 33.5989 42.8938C34.3409 42.0988 35.1474 41.9787 35.7527 42.5612C36.3631 43.1484 36.2754 43.906 35.5115 44.7421C35.0881 45.2054 34.6869 45.6892 34.26 46.149C32.0353 48.5425 29.793 50.9188 27.5836 53.3261C27.0662 53.87 26.7615 54.5827 26.725 55.3337C26.6886 56.0848 26.923 56.8238 27.3853 57.4156C28.6053 58.9819 30.2535 59.4716 31.7394 58.6328C32.2255 58.3239 32.6634 57.9445 33.0388 57.5068C35.5356 54.8533 38.0106 52.1768 40.5062 49.5211C41.1517 48.8349 41.9059 48.7932 42.4961 49.35C43.034 49.8576 43.0224 50.651 42.4505 51.3054C41.8714 51.9675 41.2878 52.6263 40.6899 53.2707C38.5867 55.5368 36.4698 57.7898 34.3719 60.0609C33.4687 61.0384 33.137 62.7482 33.7434 63.7099C34.6188 65.0982 35.8117 66.0057 37.5732 65.8686C38.2992 65.8121 38.917 65.6317 39.4211 65.0355C40.1159 64.2145 40.8921 63.4635 41.6241 62.6736C50.399 53.203 59.1657 43.7248 67.924 34.2389C68.9601 33.0891 69.8345 31.8024 70.5228 30.4146C72.1728 27.1969 72.8081 23.5516 72.3444 19.963C71.8807 16.3744 70.3398 13.0123 67.9265 10.3234C62.8263 4.60743 55.1282 2.82998 47.71 5.73041C45.4669 6.61884 43.4588 8.01573 41.8427 9.81191C40.7503 11.0129 39.6413 12.1985 38.5208 13.4117C38.7654 13.6862 38.9446 13.892 39.1306 14.094C42.6855 17.9276 46.2538 21.7492 49.7918 25.5981C51.903 27.8943 51.9374 30.2876 50.6453 32.5649C48.3805 36.5558 43.6746 36.7436 41.0444 33.8862C39.1548 31.8333 37.2415 29.8029 35.338 27.763C33.6771 25.9828 32.015 24.204 30.2815 22.3481Z" fill="#C2C2C2"/>
<path fill-rule="evenodd" clip-rule="evenodd" d="M11.0464 40.3131C11.5381 38.5025 12.7229 37.3734 13.8372 36.1934C15.4869 34.4466 17.1554 32.7163 18.784 30.9515C22.1922 27.2584 25.5784 23.5445 28.9785 19.8434C29.9738 18.76 30.5706 18.7682 31.5903 19.8601C35.3982 23.9378 39.2064 28.0151 43.0149 32.092C44.31 33.4717 46.2016 33.498 47.5785 32.2105C49.0723 30.8135 49.2515 28.9315 47.9462 27.5171C42.4404 21.5525 36.9476 15.5759 31.3819 9.66733C28.3931 6.49377 24.6201 4.80279 20.3022 4.42534C8.53677 3.39593 -0.902516 13.857 1.21139 25.558C1.60827 27.7555 2.26344 29.9156 3.55941 31.7116C5.03616 33.7572 6.79764 35.5962 8.45767 37.5056C9.25645 38.4234 10.1056 39.2959 11.0464 40.3131Z" fill="#FF5265"/>
</svg>
