<svg width="27" height="27" viewBox="0 0 27 27" fill="none" xmlns="http://www.w3.org/2000/svg">
<path d="M22.502 8.50013C23.2336 8.39614 23.939 8.06286 24.5019 7.50003C25.8826 6.11934 25.8826 3.88072 24.5019 2.50003C23.1211 1.11934 20.8826 1.11934 19.5019 2.50008C18.9391 3.06286 18.6059 3.76839 18.5019 4.49997L14.0019 0L9.00195 5C9.73375 5.10399 10.4391 5.43727 11.0018 6.00005C12.3826 7.38074 12.3826 9.61942 11.0018 11.0001C9.62111 12.3807 7.38259 12.3807 6.0019 11.0001C5.43907 10.4373 5.10579 9.73179 5.0018 9.00011L0.00195312 13.9999L4.50203 18.5C3.77024 18.604 3.06487 18.9373 2.50198 19.5001C1.12134 20.8808 1.12129 23.1194 2.50198 24.5C3.88272 25.8807 6.12129 25.8807 7.50198 24.5001C8.06476 23.9372 8.39809 23.2318 8.50203 22.5002L13.0019 27.0001L18.0018 22.0001C17.2701 21.8962 16.5648 21.5629 16.0019 21.0001C14.6212 19.6193 14.6212 17.3808 16.0019 16.0001C17.3826 14.6194 19.6212 14.6193 21.0018 16.0001C21.5648 16.563 21.8979 17.2683 22.0019 17.9999L27.0018 13L22.502 8.50013Z" fill="#CBCBCB"/>
</svg>
