<svg width="48" height="48" viewBox="0 0 48 48" fill="none" xmlns="http://www.w3.org/2000/svg">
<path d="M40.002 15.1113C41.3027 14.9265 42.5568 14.334 43.5574 13.3334C46.0119 10.8788 46.012 6.89905 43.5575 4.44449C41.1026 1.98993 37.1231 1.98993 34.6686 4.44459C33.6681 5.44508 33.0756 6.69936 32.8907 7.99995L24.8907 0L16.002 8.88889C17.3029 9.07376 18.5568 9.66626 19.5573 10.6668C22.012 13.1213 22.012 17.1012 19.5573 19.5557C17.1027 22.0102 13.1231 22.0102 10.6685 19.5557C9.66793 18.5552 9.07543 17.301 8.89056 16.0002L0.00195312 24.8888L8.00209 32.8889C6.70113 33.0738 5.44713 33.6663 4.44644 34.6668C1.99198 37.1214 1.99189 41.1011 4.44644 43.5556C6.90109 46.0102 10.8808 46.0102 13.3353 43.5557C14.3358 42.5551 14.9284 41.301 15.1132 40.0003L23.113 48.0001L32.0018 39.1113C30.7008 38.9265 29.447 38.334 28.4463 37.3334C25.9916 34.8788 25.9916 30.8992 28.4463 28.4445C30.9009 25.9901 34.8805 25.9899 37.3351 28.4445C38.3359 29.4453 38.9281 30.6992 39.113 31.9999L48.0018 23.1111L40.002 15.1113Z" fill="white"/>
</svg>
