<svg width="47" height="80" viewBox="0 0 47 80" fill="none" xmlns="http://www.w3.org/2000/svg">
<path fill-rule="evenodd" clip-rule="evenodd" d="M13.7922 79.9395C13.2213 79.8324 13.0908 79.8449 13.0629 79.7975C8.95642 72.8447 4.80094 65.9187 0.818596 58.8961C0.209064 57.8213 0.246451 56.2978 0.243693 54.9814C0.210392 38.6119 0.207736 22.2423 0.235725 5.87269C0.235725 5.07971 0.354629 4.28704 0.480887 2.69313C1.42445 3.89254 1.96442 4.45414 2.36066 5.10266C5.5879 10.3799 8.9889 15.5671 11.903 21.0111C13.1916 23.4322 13.9 26.1189 13.9724 28.8598C14.1545 45.0602 14.0644 61.264 14.046 77.4666C14.0031 78.2947 13.9184 79.12 13.7922 79.9395ZM2.33553 1.59625C3.3079 1.92495 4.35198 2.12266 5.24131 2.60316C13.145 6.87316 21.0177 11.2007 28.908 15.4937C31.6712 16.9964 33.0392 19.2293 33.0328 22.404C33.0006 38.545 33.0248 54.6858 33.0156 70.8269C33.0138 74.2151 31.9761 74.5769 28.8203 73.3597C23.9318 71.4745 22.3321 68.4718 22.5757 63.1456C23.0912 51.8787 22.6809 40.5717 22.7618 29.2821C22.7878 25.6365 21.6417 22.647 19.0742 20.0327C13.3322 14.185 7.69568 8.23478 2.01621 2.32526L2.33553 1.59625ZM6.11623 0.976807C9.75963 1.42639 13.4076 1.84201 17.0455 2.3323C25.2842 3.44245 33.5199 4.57289 41.7529 5.72364C44.8459 6.15211 46.1609 7.5884 46.1658 10.7245C46.1862 27.1112 46.1752 43.4979 46.1327 59.8847C46.129 60.8701 45.7321 62.0962 45.0659 62.7646C44.4821 63.3504 43.1966 63.6062 42.3483 63.4247C41.896 63.3283 41.447 61.9979 41.444 61.2227C41.3879 47.5117 41.4069 33.8007 41.3946 20.0896C41.3906 15.9007 40.3928 14.4317 36.4565 12.9587C27.1839 9.48805 17.9033 6.03785 8.61473 2.60805C7.76187 2.29129 6.91147 1.96871 6.05984 1.64889L6.11623 0.976807Z" fill="#2E3192"/>
</svg>
