<svg width="20" height="27" viewBox="0 0 20 27" fill="none" xmlns="http://www.w3.org/2000/svg">
<path fill-rule="evenodd" clip-rule="evenodd" d="M0.892868 3.17317C1.32085 3.17317 1.37054 3.50328 1.37054 3.92983L1.99729 26.21C1.99243 26.4126 1.90867 26.6053 1.76392 26.7469C1.61916 26.8885 1.42488 26.9677 1.22258 26.9677C1.02028 26.9677 0.826004 26.8885 0.681249 26.7469C0.536493 26.6053 0.452738 26.4126 0.447876 26.21V3.92804C0.448771 3.50373 0.464888 3.17317 0.892868 3.17317ZM1.72689 3.30458C1.72689 3.30458 3.33182 0.97628 5.22997 0.967758C8.70708 0.95206 11.4402 4.9915 15.4093 5.25702C17.2967 5.38351 19.2432 3.21039 19.2512 3.21039C19.2548 7.0009 19.2575 10.411 19.2512 14.1096C19.2512 14.1096 17.7318 16.3908 15.8381 16.4644C12.464 16.5949 9.13596 12.172 5.76002 12.237C3.30898 12.2841 2.07877 14.4761 2.07832 14.4752L1.72689 3.30458Z" fill="#CBCBCB"/>
</svg>
