<svg width="22" height="23" viewBox="0 0 22 23" fill="none" xmlns="http://www.w3.org/2000/svg">
<path d="M1.83337 10.0844V5.50102C1.83337 4.99479 2.24379 4.58435 2.75004 4.58435H7.33337C7.83963 4.58435 8.25004 4.99479 8.25004 5.50102V9.16768C8.25004 9.67391 7.83963 10.0844 7.33337 10.0844H4.50004C4.50004 14.1344 8.78329 18.4177 12.8334 18.4177V15.5844C12.8334 15.0781 13.2438 14.6677 13.75 14.6677H17.4167C17.923 14.6677 18.3334 15.0781 18.3334 15.5844V20.1677C18.3334 20.6739 17.923 21.0844 17.4167 21.0844H12.8334C6.75825 21.0844 1.83337 16.1595 1.83337 10.0844Z" fill="#939393"/>
</svg>
