<svg width="22" height="22" viewBox="0 0 22 22" fill="none" xmlns="http://www.w3.org/2000/svg">
<path fill-rule="evenodd" clip-rule="evenodd" d="M16.5 9.64844C18.0188 9.64844 19.25 10.8027 19.25 12.2266V17.3828C19.25 18.8067 18.0188 19.9609 16.5 19.9609H5.5C3.98122 19.9609 2.75 18.8067 2.75 17.3828V12.2266C2.75 10.8027 3.98122 9.64844 5.5 9.64844V7.07031C5.5 4.22259 7.96243 1.91406 11 1.91406C14.0376 1.91406 16.5 4.22259 16.5 7.07031V9.64844ZM11 3.63281C13.025 3.63281 14.6667 5.17183 14.6667 7.07031V9.64844H7.33333V7.07031C7.33333 5.17183 8.97496 3.63281 11 3.63281ZM16.5 11.3672H5.5C4.99374 11.3672 4.58333 11.7519 4.58333 12.2266V17.3828C4.58333 17.8574 4.99374 18.2422 5.5 18.2422H16.5C17.0063 18.2422 17.4167 17.8574 17.4167 17.3828V12.2266C17.4167 11.7519 17.0063 11.3672 16.5 11.3672Z" fill="#939393"/>
</svg>
