<svg xmlns="http://www.w3.org/2000/svg" viewBox="0 0 151.03 38.77"><defs><style>.cls-1{fill:#66a89a;}.cls-2{fill:#f9b18c;stroke:#f9b18c;stroke-miterlimit:10;stroke-width:0.75px;}.cls-3{fill:#f9b08c;}</style></defs><g id="Layer_2" data-name="Layer 2"><g id="Layer_1-2" data-name="Layer 1"><rect class="cls-1" x="122.51" y="19.78" width="0.72" height="16.1"/><path class="cls-1" d="M36.55,27.06V38.31H32.61V27.06a6.2,6.2,0,1,0-12.39,0V38.31H16.28V27.06a6.23,6.23,0,0,0-6.17-6.27,6.26,6.26,0,0,0-6.18,6.27V38.31H0v-21H3.93v2A10.47,10.47,0,0,1,10.11,17a10.24,10.24,0,0,1,7.18,3.11,7.26,7.26,0,0,1,1,1.14,12.1,12.1,0,0,1,1-1.14A10.24,10.24,0,0,1,26.44,17,10.09,10.09,0,0,1,36.55,27.06Z"/><path class="cls-1" d="M57.22,17.36h3.93v21H57.22V35.89a11.31,11.31,0,0,1-7,2.88,10.94,10.94,0,1,1,0-21.87,11.26,11.26,0,0,1,7,2.89Zm0,10.48a7,7,0,1,0-7,7.08A7.09,7.09,0,0,0,57.22,27.84Z"/><path class="cls-1" d="M101.91,27.06V38.31H98V27.06a6.2,6.2,0,1,0-12.39,0V38.31H81.64V27.06a6.18,6.18,0,1,0-12.35,0V38.31H65.36v-21h3.93v2A10.47,10.47,0,0,1,75.47,17a10.24,10.24,0,0,1,7.18,3.11,7.26,7.26,0,0,1,1,1.14,12.1,12.1,0,0,1,1-1.14A10.24,10.24,0,0,1,91.8,17a10.09,10.09,0,0,1,10.11,10.11Z"/><path class="cls-1" d="M115.53,16.9a10.94,10.94,0,1,0,0,21.87,11.27,11.27,0,0,0,7-2.89V27.83a7,7,0,1,1-7-7.08,7.09,7.09,0,0,1,7,7.08v-8A11.27,11.27,0,0,0,115.53,16.9Z"/><path class="cls-2" d="M129.79,14.33V.75h1.43V14.33Z"/><path class="cls-2" d="M134.21,1.82h0A.79.79,0,0,1,135,1h.05a.79.79,0,0,1,.79.79h0a.79.79,0,0,1-.79.79H135A.79.79,0,0,1,134.21,1.82Zm.1,12.51V4.71h1.43v9.62Z"/><path class="cls-2" d="M143.7,4.75V6h-3v8.35h-1.43V6h-1.32V4.73h1.32V3.89a3.45,3.45,0,0,1,.75-2.4,2.8,2.8,0,0,1,2.15-.82,5.48,5.48,0,0,1,.87.06,3.55,3.55,0,0,1,.71.19V2.16c-.26-.07-.5-.13-.71-.17a3,3,0,0,0-.68-.07c-1.12,0-1.68.68-1.68,2.05v.78Z"/><path class="cls-2" d="M147.61,11.6a1.48,1.48,0,0,0,.44,1.24,1.82,1.82,0,0,0,1.17.36,3.13,3.13,0,0,0,.7-.08,3.37,3.37,0,0,0,.7-.26v1.23a3.14,3.14,0,0,1-.79.3,3.85,3.85,0,0,1-.94.11,3.71,3.71,0,0,1-1.08-.15,2.32,2.32,0,0,1-.87-.48,2,2,0,0,1-.56-.84,3.37,3.37,0,0,1-.21-1.25V6h-1.34V4.71h1.34V1.81h1.44v2.9h3V6h-3Z"/><circle class="cls-3" cx="115.49" cy="27.83" r="7.09"/><path class="cls-1" d="M123.55,0a7.5,7.5,0,0,0,0,15,7.33,7.33,0,0,0,3-.62V.61A7.5,7.5,0,0,0,123.55,0Z"/><path class="cls-1" d="M123.55,16.4a6.15,6.15,0,0,1-1-.07v22h3.93V15.79A7.5,7.5,0,0,1,123.55,16.4Z"/></g></g></svg>