<svg width="139" height="49" viewBox="0 0 139 49" fill="none" xmlns="http://www.w3.org/2000/svg">
<g clip-path="url(#clip0_2_20)">
<path d="M14.0607 1.90212C17.8815 1.90212 21.473 2.54886 23.6509 6.04886C24.9499 8.14125 24.9881 10.4239 22.5428 11.6793C19.8683 13.0489 19.1041 10.9565 18.4928 8.86408C17.8433 6.61951 17.3466 3.69017 14.0989 4.45104C10.6602 5.24995 10.7366 8.33147 11.0423 11.1467C11.3479 13.8097 12.9145 15.826 14.672 17.7282C17.8433 21.2663 21.3202 24.538 24.0711 28.3804C28.2358 34.163 27.4334 40.8967 22.6574 45.1956C17.5376 49.7608 7.45074 50.3315 2.71297 46.2989C1.29928 45.0815 0.229466 43.6358 0.0384273 41.6956C-0.114404 39.7554 0.0766352 37.8913 2.21627 37.2065C4.66157 36.4076 5.42573 38.1956 5.92243 40.0978C6.11347 40.7826 6.34272 41.5054 6.53375 42.1902C7.18329 44.8913 8.82622 46.1847 11.6536 46.0706C14.7102 45.9565 16.3532 44.2445 16.9263 41.4673C17.8051 37.2445 16.506 33.5923 13.6786 30.3967C10.5456 26.8206 7.33612 23.3586 4.43233 19.5923C1.49032 15.788 1.14645 11.413 3.36251 7.22821C5.54035 3.15756 9.51396 1.74995 14.0607 1.90212Z" fill="white"/>
<path d="M100.869 21.7607C100.869 27.201 100.793 32.6412 100.907 38.0814C100.984 41.201 99.9137 42.8368 96.475 42.7227C93.1892 42.6466 92.616 40.7825 92.616 38.0814C92.6925 28.3042 92.6543 18.489 92.616 8.71183C92.616 7.45639 92.3486 6.12487 92.5778 4.90748C92.8835 3.23357 88.6806 3.46183 91.0495 1.55965C92.8453 0.114002 95.367 -0.418607 97.8505 0.304219C99.8373 0.874871 100.831 2.28248 100.831 4.33683C100.831 10.1575 100.831 15.9781 100.869 21.7607C100.831 21.7607 100.869 21.7607 100.869 21.7607Z" fill="white"/>
<path d="M85.3564 22.0271C85.3564 26.7445 85.3946 31.4999 85.3564 36.2173C85.3564 39.2988 85.9677 42.6847 81.0389 42.6847C76.2247 42.6847 77.1417 39.2988 77.1417 36.5217C77.0653 27.6195 77.1417 18.6793 77.1035 9.7771C77.1035 8.33145 77.5238 6.58145 76.8743 5.47819C75.0021 2.39667 75.3077 0.532538 79.1667 0.152104C82.7965 -0.228331 85.3564 0.912973 85.3564 5.09776C85.3182 10.7662 85.3182 16.3967 85.3564 22.0271Z" fill="white"/>
<path d="M41.1113 16.5489C41.0731 22.75 40.8821 28.913 40.9967 35.1141C41.0731 39.2989 41.5316 39.4511 45.9255 37.7011C43.9387 42 41.3406 43.5217 37.2523 42.6087C33.2405 41.7337 32.2853 38.8043 32.3617 35.1902C32.4381 30.8152 32.5146 26.4402 32.3235 22.1032C32.2471 20.125 33.4698 17.6522 30.757 16.2826C29.8018 15.8261 30.1457 14.7608 30.7188 14.6087C34.9981 13.4293 37.2141 9.77715 40.691 5.66846C40.8439 9.35867 40.9585 11.7935 41.0731 14.2282C41.7226 14.9511 41.6844 15.7119 41.1113 16.5489Z" fill="white"/>
<path d="M41.1116 16.5489C41.0734 15.7881 41.0352 14.9891 40.997 14.2283C43.213 13.8478 47.0338 16.5489 46.7664 11.2228C46.7282 10.5381 48.3711 10.5761 48.9824 11.4131C50.0522 12.8587 49.5555 14.2663 48.4093 15.3315C46.3461 17.3098 43.5569 16.0924 41.1116 16.5489Z" fill="white"/>
<path d="M130.862 39.5653C127.156 35.0762 129.563 29.9023 129.219 25.0708C128.684 17.3099 125.818 14.1523 117.26 14.2284C114.088 14.761 109.656 14.5708 108.357 19.6306C107.899 21.3425 108.472 22.9403 110.191 23.7773C111.223 24.3099 112.407 24.3099 113.286 23.511C114.585 22.2936 114.394 21.0001 113.21 19.7447C111.07 17.424 113.324 16.9675 114.814 16.6251C117.145 16.0925 119.361 16.7012 120.24 19.174C121.157 21.761 120.125 23.8534 117.642 25.0708C114.853 26.4403 111.758 27.3534 109.274 29.1414C105.53 31.8806 104.766 35.8371 107.249 39.7556C109.771 43.7501 113.783 43.674 117.413 41.5817C119.705 40.2501 120.889 39.5653 123.067 41.886C124.71 43.636 127.538 43.0273 129.715 41.6577C130.441 41.1632 131.511 40.3643 130.862 39.5653ZM120.546 31.9186C120.469 34.848 120.928 38.2719 117.298 38.6143C114.05 38.9566 114.012 35.799 114.05 33.4403C114.088 30.5871 114.967 27.6197 118.253 27.3153C122.15 26.973 119.781 30.473 120.546 31.9186Z" fill="white"/>
<path d="M66.2527 38.9944C62.2027 38.7281 60.1012 35.9129 58.8786 32.565C57.5795 29.027 61.0946 28.5324 63.0432 27.239C64.839 26.0216 66.864 25.0705 68.7362 23.9292C70.532 22.864 71.9839 21.4944 71.7928 19.1737C71.5636 16.5868 69.6532 15.5216 67.5136 14.7607C61.9352 12.8205 54.3319 16.1303 51.1224 21.7987C47.7983 27.6955 49.3266 36.1792 54.4083 40.1737C59.3371 44.0542 65.9852 43.5977 71.8692 38.4237C69.4622 38.69 67.8574 39.1085 66.2527 38.9944ZM58.1144 23.815C58.9932 21.3422 58.1144 17.4237 62.2791 17.4237C64.648 17.4237 65.2975 19.9727 65.1447 21.9129C64.839 25.2607 61.6296 25.9835 59.2225 26.6303C57.3121 27.1248 58.1144 24.9944 58.1144 23.815Z" fill="white"/>
<path d="M135.332 6.46756C135.141 6.46756 134.912 6.46756 134.721 6.46756C134.721 4.94582 134.721 3.42408 134.721 1.90234H134.759C134.988 1.90234 135.217 1.90234 135.485 1.90234C135.523 1.90234 135.523 1.90234 135.523 1.94039C135.943 2.62517 136.402 3.348 136.822 4.03278C136.822 4.03278 136.822 4.07082 136.86 4.07082C136.86 4.07082 136.86 4.03278 136.899 4.03278C137.357 3.348 137.777 2.62517 138.198 1.94039C138.198 1.90234 138.236 1.90234 138.274 1.90234C138.503 1.90234 138.733 1.90234 138.962 1.90234H139C139 3.42408 139 4.94582 139 6.46756C138.809 6.46756 138.58 6.46756 138.389 6.46756C138.389 5.25017 138.389 4.03278 138.389 2.81539C137.892 3.6143 137.395 4.41321 136.86 5.25017C136.364 4.45126 135.829 3.65234 135.332 2.81539C135.332 3.99473 135.332 5.25017 135.332 6.46756Z" fill="white"/>
<path d="M134.109 2.51104C133.689 2.51104 133.307 2.51104 132.887 2.51104C132.887 3.84256 132.887 5.13604 132.887 6.46756C132.696 6.46756 132.466 6.46756 132.275 6.46756C132.275 5.13604 132.275 3.84256 132.275 2.51104C131.855 2.51104 131.473 2.51104 131.053 2.51104C131.053 2.32082 131.053 2.09256 131.053 1.90234C132.084 1.90234 133.078 1.90234 134.109 1.90234C134.109 2.09256 134.109 2.32082 134.109 2.51104Z" fill="white"/>
</g>
<defs>
<clipPath id="clip0_2_20">
<rect width="139" height="49" fill="white"/>
</clipPath>
</defs>
</svg>
