<?xml version="1.0" encoding="utf-8"?>
<!-- Generator: Adobe Illustrator 25.4.1, SVG Export Plug-In . SVG Version: 6.00 Build 0)  -->
<svg version="1.1" id="Layer_1" xmlns="http://www.w3.org/2000/svg" xmlns:xlink="http://www.w3.org/1999/xlink" x="0px" y="0px"
	 viewBox="0 0 363.8 128.8" style="enable-background:new 0 0 363.8 128.8;" xml:space="preserve">
<style type="text/css">
	.st0{fill:#006F59;}
</style>
<path class="st0" d="M36.8,5c10,0,19.4,1.7,25.1,10.9c3.4,5.5,3.5,11.5-2.9,14.8c-7,3.6-9-1.9-10.6-7.4c-1.7-5.9-3-13.6-11.5-11.6
	c-9,2.1-8.8,10.2-8,17.6c0.8,7,4.9,12.3,9.5,17.3c8.3,9.3,17.4,17.9,24.6,28c10.9,15.2,8.8,32.9-3.7,44.2
	c-13.4,12-39.8,13.5-52.2,2.9c-3.7-3.2-6.5-7-7-12.1c-0.4-5.1,0.1-10,5.7-11.8c6.4-2.1,8.4,2.6,9.7,7.6c0.5,1.8,1.1,3.7,1.6,5.5
	c1.7,7.1,6,10.5,13.4,10.2c8-0.3,12.3-4.8,13.8-12.1c2.3-11.1-1.1-20.7-8.5-29.1c-8.2-9.4-16.6-18.5-24.2-28.4C3.9,41.5,3,30,8.8,19
	C14.5,8.3,24.9,4.6,36.8,5z"/>
<path class="st0" d="M264,57.2c0,14.3-0.2,28.6,0.1,42.9c0.2,8.2-2.6,12.5-11.6,12.2c-8.6-0.2-10.1-5.1-10.1-12.2
	c0.2-25.7,0.1-51.5,0-77.2c0-3.3-0.7-6.8-0.1-10c0.8-4.4-10.2-3.8-4-8.8c4.7-3.8,11.3-5.2,17.8-3.3c5.2,1.5,7.8,5.2,7.8,10.6
	C263.9,26.7,263.9,42,264,57.2C263.9,57.2,264,57.2,264,57.2z"/>
<path class="st0" d="M223.4,57.9c0,12.4,0.1,24.9,0,37.3c0,8.1,1.6,17-11.3,17c-12.6,0-10.2-8.9-10.2-16.2
	c-0.2-23.4,0-46.9-0.1-70.3c0-3.8,1.1-8.4-0.6-11.3c-4.9-8.1-4.1-13,6-14c9.5-1,16.2,2,16.2,13C223.3,28.3,223.3,43.1,223.4,57.9z"
	/>
<path class="st0" d="M107.6,43.5c-0.1,16.3-0.6,32.5-0.3,48.8c0.2,11,1.4,11.4,12.9,6.8c-5.2,11.3-12,15.3-22.7,12.9
	c-10.5-2.3-13-10-12.8-19.5c0.2-11.5,0.4-23-0.1-34.4c-0.2-5.2,3-11.7-4.1-15.3c-2.5-1.2-1.6-4-0.1-4.4c11.2-3.1,17-12.7,26.1-23.5
	c0.4,9.7,0.7,16.1,1,22.5C109.2,39.3,109.1,41.3,107.6,43.5z"/>
<path class="st0" d="M107.6,43.5c-0.1-2-0.2-4.1-0.3-6.1c5.8-1,15.8,6.1,15.1-7.9c-0.1-1.8,4.2-1.7,5.8,0.5
	c2.8,3.8,1.5,7.5-1.5,10.3C121.3,45.5,114,42.3,107.6,43.5z"/>
<path class="st0" d="M342.5,104c-9.7-11.8-3.4-25.4-4.3-38.1c-1.4-20.4-8.9-28.7-31.3-28.5c-8.3,1.4-19.9,0.9-23.3,14.2
	c-1.2,4.5,0.3,8.7,4.8,10.9c2.7,1.4,5.8,1.4,8.1-0.7c3.4-3.2,2.9-6.6-0.2-9.9c-5.6-6.1,0.3-7.3,4.2-8.2c6.1-1.4,11.9,0.2,14.2,6.7
	c2.4,6.8-0.3,12.3-6.8,15.5c-7.3,3.6-15.4,6-21.9,10.7c-9.8,7.2-11.8,17.6-5.3,27.9c6.6,10.5,17.1,10.3,26.6,4.8
	c6-3.5,9.1-5.3,14.8,0.8c4.3,4.6,11.7,3,17.4-0.6C341.4,108.2,344.2,106.1,342.5,104z M315.5,83.9c-0.2,7.7,1,16.7-8.5,17.6
	c-8.5,0.9-8.6-7.4-8.5-13.6c0.1-7.5,2.4-15.3,11-16.1C319.7,70.9,313.5,80.1,315.5,83.9z"/>
<path class="st0" d="M173.4,102.5c-10.6-0.7-16.1-8.1-19.3-16.9c-3.4-9.3,5.8-10.6,10.9-14c4.7-3.2,10-5.7,14.9-8.7
	c4.7-2.8,8.5-6.4,8-12.5c-0.6-6.8-5.6-9.6-11.2-11.6c-14.6-5.1-34.5,3.6-42.9,18.5c-8.7,15.5-4.7,37.8,8.6,48.3
	c12.9,10.2,30.3,9,45.7-4.6C181.8,101.7,177.6,102.8,173.4,102.5z M152.1,62.6c2.3-6.5,0-16.8,10.9-16.8c6.2,0,7.9,6.7,7.5,11.8
	c-0.8,8.8-9.2,10.7-15.5,12.4C150,71.3,152.1,65.7,152.1,62.6z"/>
<g>
	<path class="st0" d="M354.2,17c-0.5,0-1.1,0-1.6,0c0-4,0-8,0-12h0.1c0.6,0,1.2,0,1.9,0c0.1,0,0.1,0,0.1,0.1
		c1.1,1.8,2.3,3.7,3.4,5.5c0,0,0,0.1,0.1,0.1c0,0,0-0.1,0.1-0.1c1.2-1.8,2.3-3.7,3.4-5.5c0-0.1,0.1-0.1,0.2-0.1c0.6,0,1.2,0,1.8,0
		h0.1c0,4,0,8,0,12c-0.5,0-1.1,0-1.6,0c0-3.2,0-6.4,0-9.6l0,0c-1.3,2.1-2.6,4.2-4,6.4c-1.3-2.1-2.7-4.2-4-6.4
		C354.2,10.5,354.2,13.8,354.2,17z"/>
	<path class="st0" d="M351,6.6c-1.1,0-2.1,0-3.2,0c0,3.5,0,6.9,0,10.4c-0.5,0-1.1,0-1.6,0c0-3.5,0-6.9,0-10.4c-1.1,0-2.1,0-3.2,0
		c0-0.5,0-1.1,0-1.6c2.7,0,5.3,0,8,0C351,5.5,351,6.1,351,6.6z"/>
</g>
</svg>
