<svg width="46" height="67" viewBox="0 0 46 67" fill="none" xmlns="http://www.w3.org/2000/svg">
<path fill-rule="evenodd" clip-rule="evenodd" d="M37.0376 41.9868C33.326 51.7069 37.0873 61.0966 37.8019 70.5759C38.166 75.4057 38.1852 75.6417 33.4936 75.642C26.1461 75.642 18.7983 75.6568 11.4511 75.6323C8.01988 75.6208 7.60053 75.0462 8.07233 71.6198C8.97684 65.0492 10.1094 58.4924 10.5915 51.8886C10.824 48.6997 9.79542 45.4169 9.23885 41.4876C6.78476 46.0087 5.83577 50.3173 5.43374 54.7232C5.13356 58.013 5.16049 61.3472 5.26234 64.6546C5.31222 66.2727 4.83667 67.0528 3.26344 67.1704C1.75366 67.2835 0.99807 66.7622 0.87046 65.0682C0.00906682 54.1353 1.44808 43.1428 5.09399 32.8049C6.06336 30.046 7.54457 27.7407 10.5149 26.7466C12.966 25.9263 14.7984 25.6568 16.5522 28.5164C19.0985 32.6681 26.143 32.6159 29.2801 28.9447C30.2055 27.8615 31.6148 26.0953 32.4725 26.2721C34.7166 26.7349 36.9039 27.9032 38.8581 29.1876C39.7849 29.7963 40.2965 31.2508 40.7079 32.425C44.3662 42.8541 46.1127 53.5528 45.0525 64.6431C44.9057 66.1803 44.6856 67.3322 42.7616 67.1866C40.8865 67.0455 40.7109 65.9567 40.8053 64.3652C41.2314 57.1736 40.4822 50.1341 37.7967 43.3907C37.5728 42.9075 37.3192 42.4386 37.0376 41.9868ZM33.724 12.0101C33.6908 15.5982 28.3105 23.0959 24.9456 24.1674C22.2796 25.0166 19.8881 24.3554 18.0978 22.2629C16.3035 20.1649 14.2611 18.0571 13.225 15.5721C11.4375 11.2849 12.7567 7.05092 15.3557 3.43996C17.737 0.1316 21.4655 -0.276567 25.0508 0.524484C31.4392 1.95095 33.7856 5.30869 33.724 12.0101ZM17.0193 8.98783C14.3734 13.567 16.3501 20.3777 20.985 22.4837C24.3099 23.9948 27.6783 21.5667 29.784 16.1383C29.8543 15.9565 29.9011 15.7654 29.9784 15.5864C30.8143 13.6234 30.272 12.469 28.1366 11.9468C24.4928 11.0562 20.8825 10.0245 17.0193 8.98783ZM31.0503 0.580442C35.7871 1.07231 37.2786 2.49948 37.7424 6.82661C37.8974 8.27424 37.8192 9.74797 37.9838 11.194C38.1372 12.5391 38.472 13.8628 38.7272 15.1985C35.4675 16.0148 34.6367 15.3708 34.7018 12.1862C34.7826 8.23192 34.4714 4.38843 31.1575 1.567C31.0126 1.44356 31.0931 1.05045 31.0503 0.580442Z" fill="#006F59"/>
</svg>
