<svg width="137" height="173" viewBox="0 0 137 173" fill="none" xmlns="http://www.w3.org/2000/svg">
<path d="M135.382 85.021C133.466 69.8556 127.154 54.7882 118.064 43.683C112.941 37.4233 106.962 32.4024 100.268 28.6715C98.6165 12.5881 84.9912 0 68.4807 0C51.9701 0 38.3448 12.5881 36.6936 28.6715C29.9993 32.4024 24.0207 37.424 18.8971 43.683C9.80801 54.7879 3.49578 69.8553 1.57966 85.021L0.734375 91.7109L6.75979 91.3763C6.74902 107.743 10.518 124.895 17.4008 139.334C27.6984 160.938 45.3613 172.357 68.4793 172.357C91.5973 172.357 109.26 160.938 119.557 139.334C126.441 124.893 130.211 107.74 130.201 91.3763L136.227 91.7109L135.382 85.021ZM68.4807 11.2406C76.8208 11.2406 84.0204 16.1985 87.3015 23.32C81.3973 21.6439 75.1036 20.7855 68.4807 20.7855C61.8577 20.7855 55.564 21.6442 49.6598 23.32C52.941 16.1985 60.1405 11.2406 68.4807 11.2406ZM109.411 134.497C100.992 152.16 87.2201 161.116 68.4793 161.116C49.7386 161.116 35.9672 152.16 27.5476 134.497C21.3 121.391 17.8388 105.158 18.0098 90.2186C24.49 89.2054 30.8955 87.5983 37.1481 85.4048C48.5038 81.42 59.0229 75.5929 68.4807 68.0543C77.9384 75.5929 88.4575 81.4197 99.8132 85.4048C106.066 87.5986 112.471 89.206 118.951 90.2186C119.122 105.155 115.659 121.388 109.411 134.497ZM72.1719 56.501L68.4807 53.2872L64.7895 56.501C46.6944 72.2579 27.1379 77.6635 13.99 79.4312C15.7611 71.7226 19.5516 60.6308 27.5958 50.8028C37.7931 38.3433 51.549 32.0264 68.4807 32.0264C85.4124 32.0264 99.1686 38.3436 109.366 50.8028C117.41 60.6305 121.2 71.7229 122.971 79.4312C109.823 77.6635 90.267 72.2579 72.1719 56.501Z" fill="black"/>
<path d="M86.8297 146.085C81.8973 141.258 75.3814 138.6 68.4824 138.6C61.5835 138.6 55.0676 141.258 50.1352 146.085L42.2734 138.051C49.3189 131.156 58.6271 127.359 68.4824 127.359C78.3377 127.359 87.6464 131.156 94.6914 138.051L86.8297 146.085Z" fill="#D83636"/>
<path d="M48.4749 110.488C52.0962 110.488 55.0319 107.552 55.0319 103.931C55.0319 100.31 52.0962 97.3741 48.4749 97.3741C44.8536 97.3741 41.918 100.31 41.918 103.931C41.918 107.552 44.8536 110.488 48.4749 110.488Z" fill="black"/>
<path d="M88.4906 110.488C92.1119 110.488 95.0475 107.552 95.0475 103.931C95.0475 100.31 92.1119 97.3741 88.4906 97.3741C84.8692 97.3741 81.9336 100.31 81.9336 103.931C81.9336 107.552 84.8692 110.488 88.4906 110.488Z" fill="black"/>
</svg>
