<svg width="50" height="35" viewBox="0 0 50 35" fill="none" xmlns="http://www.w3.org/2000/svg">
<path d="M48.9583 6.875C48.4853 6.875 48.0306 6.82619 47.6013 6.73804C47.7996 5.82283 47.9166 4.80711 47.9166 3.6875C47.9166 1.92979 46.5148 0.5 44.7916 0.5C43.0684 0.5 41.6666 1.92979 41.6666 3.6875C41.6666 5.43375 43.0368 7.08149 45.0021 8.06613C44.7013 8.77913 44.3433 9.37699 43.9733 9.89048C40.7003 4.36225 33.4358 0.5 25 0.5C20.1345 0.5 15.4551 1.79701 11.7248 4.16692C10.4543 3.16774 8.90801 2.62507 7.2916 2.62507C6.71582 2.62507 6.2499 3.1003 6.2499 3.6876C6.2499 5.15375 6.69033 6.58872 7.50313 7.81412C6.10645 9.4774 5.11973 11.3295 4.60703 13.2501H4.1666C1.86865 13.25 0 15.1561 0 17.5C0 19.8648 1.1749 22.0229 3.14228 23.2753L10.4167 27.8978V33.4375C10.4167 34.0248 10.8826 34.5001 11.4584 34.5001H15.625C16.0197 34.5001 16.3798 34.2729 16.5568 33.9128L17.7897 31.3976C22.3999 32.6946 27.6001 32.6946 32.2104 31.3976L33.4433 33.9128C33.6203 34.2729 33.9804 34.5001 34.3751 34.5001H38.5418C39.1176 34.5001 39.5835 34.0248 39.5835 33.4375V27.8117C43.563 24.8255 45.8335 20.7073 45.8335 16.4375C45.8335 14.8894 45.5293 13.3967 44.9888 11.9805C45.6945 11.1777 46.42 10.1318 46.9738 8.77276C47.6127 8.92008 48.28 8.99997 48.9585 8.99997C49.5343 8.99997 50.0002 8.52473 50.0002 7.93743C50.0002 7.35014 49.5341 6.875 48.9583 6.875ZM10.4167 15.3751C9.26826 15.3751 8.3334 14.4215 8.3334 13.2501C8.3334 12.0787 9.26826 11.1251 10.4167 11.1251C11.5651 11.1251 12.5 12.0787 12.5 13.2501C12.5 14.4215 11.5651 15.3751 10.4167 15.3751ZM33.2814 7.206C33.137 7.65424 32.7301 7.93753 32.2917 7.93753C32.1839 7.93753 32.075 7.9209 31.9672 7.88464C28.0202 6.56272 21.9798 6.56272 18.0328 7.88464C17.4876 8.07141 16.8985 7.76531 16.7186 7.206C16.5396 6.64879 16.8365 6.04804 17.3839 5.86546C21.7438 4.40658 28.2562 4.40658 32.6162 5.86546C33.1635 6.04804 33.4604 6.64879 33.2814 7.206ZM45.6228 5.99415C44.4651 5.32279 43.75 4.39622 43.75 3.6875C43.75 3.1013 44.2169 2.62497 44.7917 2.62497C45.3665 2.62497 45.8334 3.1012 45.8334 3.6875C45.8333 4.52691 45.7561 5.2948 45.6228 5.99415Z" fill="white"/>
</svg>
