<svg width="28" height="20" viewBox="0 0 28 20" fill="none" xmlns="http://www.w3.org/2000/svg">
<path d="M27.4166 4.16662C27.1517 4.16662 26.8971 4.13983 26.6567 4.09143C26.7678 3.58896 26.8333 3.03131 26.8333 2.41663C26.8333 1.45161 26.0483 0.666626 25.0833 0.666626C24.1183 0.666626 23.3333 1.45161 23.3333 2.41663C23.3333 3.37535 24.1006 4.27999 25.2012 4.82058C25.0327 5.21203 24.8322 5.54027 24.6251 5.82218C22.7922 2.78708 18.7241 0.666626 14 0.666626C11.2753 0.666626 8.65484 1.37871 6.56589 2.67984C5.85441 2.13127 4.98848 1.83333 4.0833 1.83333C3.76086 1.83333 3.49995 2.09424 3.49995 2.41668C3.49995 3.22163 3.74659 4.00945 4.20175 4.68222C3.41961 5.59539 2.86705 6.61225 2.57994 7.66668H2.3333C1.04645 7.66663 0 8.71312 0 9.99998C0 11.2983 0.657945 12.4831 1.75968 13.1707L5.83335 15.7085V18.75C5.83335 19.0724 6.09427 19.3333 6.4167 19.3333H8.75C8.97105 19.3333 9.17268 19.2086 9.27183 19.0109L9.96226 17.63C12.5439 18.3421 15.4561 18.3421 18.0378 17.63L18.7282 19.0109C18.8274 19.2086 19.029 19.3333 19.2501 19.3333H21.5834C21.9058 19.3333 22.1668 19.0724 22.1668 18.75V15.6613C24.3953 14.0218 25.6668 11.7608 25.6668 9.41662C25.6668 8.56667 25.4964 7.74718 25.1937 6.96963C25.5889 6.52891 25.9952 5.95469 26.3053 5.20853C26.6631 5.28941 27.0368 5.33327 27.4168 5.33327C27.7392 5.33327 28.0001 5.07236 28.0001 4.74992C28.0001 4.42748 27.7391 4.16662 27.4166 4.16662ZM5.83335 8.83333C5.19023 8.83333 4.6667 8.3098 4.6667 7.66668C4.6667 7.02355 5.19023 6.50003 5.83335 6.50003C6.47648 6.50003 7 7.02355 7 7.66668C7 8.3098 6.47648 8.83333 5.83335 8.83333ZM18.6376 4.34835C18.5567 4.59445 18.3288 4.74998 18.0834 4.74998C18.023 4.74998 17.962 4.74084 17.9016 4.72094C15.6913 3.99518 12.3087 3.99518 10.0984 4.72094C9.79305 4.82348 9.46318 4.65542 9.36239 4.34835C9.26215 4.04243 9.42845 3.71261 9.73498 3.61237C12.1766 2.81141 15.8235 2.81141 18.2651 3.61237C18.5715 3.71261 18.7379 4.04243 18.6376 4.34835ZM25.5487 3.68302C24.9005 3.31443 24.5 2.80573 24.5 2.41663C24.5 2.09479 24.7615 1.83327 25.0834 1.83327C25.4052 1.83327 25.6667 2.09474 25.6667 2.41663C25.6666 2.87748 25.6234 3.29906 25.5487 3.68302Z" fill="#CBCBCB"/>
</svg>
