<svg width="137" height="173" viewBox="0 0 137 173" fill="none" xmlns="http://www.w3.org/2000/svg">
<path d="M135.417 85.021C133.501 69.8556 127.189 54.7882 118.099 43.683C112.976 37.4233 106.997 32.4024 100.303 28.6715C98.6516 12.5881 85.0264 0 68.5158 0C52.0053 0 38.38 12.5881 36.7288 28.6715C30.0345 32.4024 24.0559 37.424 18.9323 43.683C9.84317 54.7879 3.53094 69.8553 1.61482 85.021L0.769531 91.7109L6.79495 91.3763C6.78417 107.743 10.5531 124.895 17.436 139.334C27.7336 160.938 45.3965 172.357 68.5145 172.357C91.6325 172.357 109.295 160.938 119.593 139.334C126.476 124.893 130.246 107.74 130.236 91.3763L136.262 91.7109L135.417 85.021ZM68.5158 11.2406C76.8559 11.2406 84.0555 16.1985 87.3367 23.32C81.4325 21.6439 75.1388 20.7855 68.5158 20.7855C61.8929 20.7855 55.5992 21.6442 49.6949 23.32C52.9761 16.1985 60.1757 11.2406 68.5158 11.2406ZM109.446 134.497C101.027 152.16 87.2552 161.116 68.5145 161.116C49.7737 161.116 36.0023 152.16 27.5828 134.497C21.3352 121.391 17.8739 105.158 18.0449 90.2186C24.5251 89.2054 30.9306 87.5983 37.1833 85.4048C48.5389 81.42 59.0581 75.5929 68.5158 68.0543C77.9736 75.5929 88.4927 81.4197 99.8484 85.4048C106.101 87.5986 112.506 89.206 118.986 90.2186C119.157 105.155 115.694 121.388 109.446 134.497ZM72.207 56.501L68.5158 53.2872L64.8246 56.501C46.7295 72.2579 27.1731 77.6635 14.0252 79.4312C15.7962 71.7226 19.5867 60.6308 27.6309 50.8028C37.8282 38.3433 51.5841 32.0264 68.5158 32.0264C85.4475 32.0264 99.2037 38.3436 109.401 50.8028C117.445 60.6305 121.235 71.7229 123.006 79.4312C109.859 77.6635 90.3021 72.2579 72.207 56.501Z" fill="black"/>
<path d="M86.8609 127.359C81.9286 132.185 75.4127 134.844 68.5137 134.844C61.6147 134.844 55.0988 132.185 50.1664 127.359L42.3047 135.393C49.3501 142.287 58.6584 146.085 68.5137 146.085C78.369 146.085 87.6776 142.288 94.7227 135.393L86.8609 127.359Z" fill="#D83636"/>
<path d="M48.5101 110.488C52.1314 110.488 55.067 107.552 55.067 103.931C55.067 100.31 52.1314 97.3741 48.5101 97.3741C44.8888 97.3741 41.9531 100.31 41.9531 103.931C41.9531 107.552 44.8888 110.488 48.5101 110.488Z" fill="black"/>
<path d="M88.5179 110.488C92.1392 110.488 95.0749 107.552 95.0749 103.931C95.0749 100.31 92.1392 97.3741 88.5179 97.3741C84.8966 97.3741 81.9609 100.31 81.9609 103.931C81.9609 107.552 84.8966 110.488 88.5179 110.488Z" fill="black"/>
</svg>
