<svg width="21" height="23" viewBox="0 0 21 23" fill="none" xmlns="http://www.w3.org/2000/svg">
<path d="M20.7052 9.88724L15.8675 8.75348C15.1861 8.594 14.7566 7.9195 14.9006 7.23449L15.6213 3.80405C15.6474 3.67808 15.5943 3.54893 15.4871 3.47814C15.3791 3.40735 15.2393 3.40936 15.1346 3.48339L12.3877 5.41067C12.0915 5.61847 11.7225 5.69202 11.3692 5.61395C11.0159 5.53578 10.7124 5.3129 10.5315 4.99962L7.88536 0.409775C7.8142 0.286622 7.66932 0.226506 7.53199 0.264158C7.39455 0.301332 7.29965 0.426503 7.3005 0.568828L7.34384 6.20747C7.34957 6.91378 6.78431 7.4929 6.07758 7.50522L2.59117 7.56613C2.46276 7.56863 2.34821 7.64924 2.30323 7.76942C2.25819 7.89013 2.2909 8.02593 2.3866 8.11222L4.88736 10.3703C5.15396 10.6113 5.30775 10.9528 5.31189 11.3119C5.31673 11.6714 5.17031 12.0158 4.90935 12.2628L0.20166 16.7148C0.0953421 16.8154 0.0724003 16.9762 0.147598 17.1022C0.222106 17.2281 0.374308 17.2859 0.513393 17.2405L6.42925 15.3222C6.80959 15.1991 7.22435 15.2591 7.55398 15.4846C7.88366 15.7099 8.08977 16.0753 8.1135 16.4736L8.34834 20.5457C8.35652 20.6835 8.45381 20.7996 8.58795 20.832C8.72215 20.8643 8.86118 20.8049 8.9316 20.686L10.9708 17.2115L8.82194 12.4862C8.46278 11.6964 8.81126 10.7655 9.60069 10.4064C9.80679 10.3124 10.0293 10.2652 10.251 10.2652C10.4375 10.2652 10.624 10.2984 10.8024 10.3651C11.1925 10.5111 11.5083 10.8063 11.6809 11.1855L14.4965 17.375L20.2611 22.1637C20.3789 22.2618 20.5515 22.2598 20.6668 22.1587C20.783 22.058 20.8083 21.8879 20.7274 21.7574L15.8504 13.8873C15.6459 13.556 15.6009 13.1503 15.7301 12.7831C15.8585 12.4154 16.1465 12.1258 16.513 11.9949L20.7388 10.4873C20.8697 10.4407 20.9539 10.3134 20.9466 10.1744C20.9385 10.0357 20.8403 9.91873 20.7052 9.88724Z" fill="#CBCBCB"/>
</svg>
