<svg width="65" height="61" viewBox="0 0 65 61" fill="none" xmlns="http://www.w3.org/2000/svg">
<path fill-rule="evenodd" clip-rule="evenodd" d="M63.6796 33.6664C62.4259 33.6838 61.1716 33.6709 59.9176 33.6709C59.9176 33.7592 59.9176 33.8476 59.9176 33.9357C58.6944 33.9357 57.4711 33.9382 56.2479 33.9357C55.9701 33.9496 55.6961 33.8657 55.4727 33.6984C55.2492 33.5311 55.0903 33.2907 55.0229 33.0182C54.9481 32.7645 54.9602 32.4928 55.057 32.2468C55.1539 32.0008 55.33 31.795 55.5569 31.6623C55.7866 31.5437 56.0395 31.4778 56.2974 31.4695C58.7281 31.3716 61.1596 31.2883 63.5909 31.205C64.4126 31.1767 64.9721 31.6522 64.9991 32.3875C65.0261 33.1227 64.5001 33.655 63.6796 33.6664ZM49.2251 16.6617C49.0093 16.8981 48.7102 17.0397 48.392 17.0559C48.0739 17.0721 47.7622 16.9617 47.5239 16.7483C47.2855 16.535 47.1396 16.2357 47.1175 15.9149C47.0953 15.5942 47.1987 15.2774 47.4054 15.0327C49.1067 13.1079 50.8184 11.1924 52.5404 9.28616C52.7067 9.08983 52.9313 8.95292 53.1808 8.89576C53.4303 8.8386 53.6915 8.86425 53.9254 8.96889C54.1502 9.07557 54.3431 9.24035 54.4845 9.44655C54.626 9.65275 54.7109 9.89303 54.7306 10.143C54.6097 10.4515 54.4533 10.7445 54.2646 11.0161C52.5983 12.9094 50.9185 14.7913 49.2251 16.6617ZM50.5141 36.2676C50.0543 39.0499 48.9666 41.6882 47.3351 43.9783C45.303 46.8557 44.2141 50.3032 44.2211 53.8371C44.2295 54.663 44.0737 55.4822 43.763 56.2462C43.4523 57.0102 42.993 57.7036 42.4122 58.2853C41.8315 58.8671 41.1411 59.3253 40.3819 59.633C39.6227 59.9406 38.8101 60.0915 37.9921 60.0766C36.1831 60.0811 34.3741 60.0766 32.5649 60.0766C30.7711 60.0766 28.9774 60.0794 27.1836 60.0766C23.6441 60.069 20.9501 57.376 20.9336 53.8046C20.9497 50.2081 19.8243 46.701 17.7224 43.7973C16.3066 41.8125 15.3176 39.5508 14.8189 37.1573C13.8846 32.7997 14.5531 28.2477 16.6996 24.3513C18.8462 20.4549 22.3239 17.4804 26.4836 15.9831C30.6433 14.4858 35.2006 14.5681 39.3046 16.2146C43.4086 17.8611 46.7788 20.9593 48.7859 24.9307C50.5814 28.4148 51.1891 32.3995 50.5146 36.2676H50.5141ZM38.8599 19.0928C36.5149 17.9915 33.9218 17.5402 31.3469 17.7851C29.0998 17.9673 26.9191 18.6421 24.9569 19.7626C17.1529 24.2108 14.7479 34.6116 19.8889 41.9861C22.371 45.4517 23.7207 49.6125 23.7501 53.8891C23.7635 54.4427 23.9002 54.9862 24.1501 55.4792C24.7604 56.6761 25.8069 57.2712 27.1344 57.2942C28.8636 57.3222 30.5939 57.301 32.3239 57.3023C33.5796 57.3023 34.8356 57.3065 36.0914 57.3005C36.7946 57.297 37.4976 57.2702 38.2006 57.2641C40.0944 57.2477 41.4506 55.4853 41.4439 53.8517C41.4249 49.5643 42.7296 45.693 45.1541 42.1827C46.4444 40.3564 47.3232 38.2673 47.7291 36.0619C48.9411 29.2923 45.6594 22.2934 38.8599 19.0928ZM32.4919 22.9832C31.3109 22.9987 30.1404 23.2102 29.0274 23.6094C27.0353 24.3348 25.3078 25.6528 24.0729 27.3896C22.8379 29.1265 22.1535 31.2004 22.1099 33.338C22.1125 33.4459 22.1095 33.5539 22.1009 33.6616C22.0693 33.9452 21.9348 34.207 21.7232 34.3964C21.5117 34.5858 21.2382 34.6894 20.9555 34.6872C20.6728 34.685 20.4009 34.5772 20.1923 34.3845C19.9837 34.1918 19.8532 33.928 19.8259 33.6439C19.8164 33.4745 19.8155 33.3048 19.8231 33.1353C20.1291 28.3474 22.2814 24.6841 26.4284 22.2803C28.2597 21.231 30.3298 20.6808 32.4354 20.6836C33.0974 20.6765 33.5376 20.983 33.6541 21.511C33.8434 22.3666 33.3884 22.965 32.4919 22.9832ZM32.4981 11.034C31.7679 11.0307 31.2829 10.4919 31.2816 9.6544C31.2775 7.15602 31.2775 4.65729 31.2816 2.15824C31.2834 1.32533 31.7761 0.777377 32.4981 0.776367C33.2066 0.776367 33.7129 1.34274 33.7174 2.16682C33.7244 3.43132 33.7191 4.69608 33.7191 5.96058H33.7206C33.7206 7.1943 33.7226 8.42801 33.7206 9.66197C33.7194 10.4936 33.2306 11.037 32.4981 11.034ZM16.0731 18.1836C15.8439 18.2978 15.5839 18.3333 15.3328 18.2846C15.0817 18.236 14.8533 18.1058 14.6821 17.9141C13.053 16.3275 11.4231 14.7417 9.7924 13.1567C9.58315 12.9532 9.3674 12.7556 9.16465 12.5461C9.04541 12.437 8.9488 12.305 8.88041 12.1579C8.81202 12.0108 8.77322 11.8515 8.76624 11.6891C8.75927 11.5268 8.78426 11.3646 8.83977 11.2121C8.89529 11.0596 8.98022 10.9197 9.08965 10.8005C9.20316 10.679 9.33978 10.5818 9.49134 10.5148C9.6429 10.4477 9.8063 10.4122 9.97175 10.4104C10.1372 10.4086 10.3013 10.4404 10.4543 10.5041C10.6073 10.5677 10.746 10.6619 10.8621 10.7808C11.5621 11.4272 12.2334 12.1034 12.9164 12.7677C14.0509 13.8709 15.1949 14.9636 16.3111 16.0865C16.5043 16.3157 16.6686 16.5683 16.8001 16.8384C16.7846 17.5698 16.5439 17.9668 16.0734 18.1834L16.0731 18.1836ZM10.1731 34.3276C10.1904 35.0482 9.6749 35.5831 8.88815 35.5954C7.6184 35.6156 6.3479 35.601 5.07765 35.601C5.07765 35.6881 5.07765 35.7753 5.07765 35.8625C3.85265 35.8625 2.6299 35.8551 1.40615 35.865C0.683647 35.8708 0.159397 35.5159 0.0311467 34.8991C-0.133853 34.1106 0.428647 33.4352 1.30265 33.4003C3.07765 33.3302 4.85265 33.2741 6.62765 33.211C7.36215 33.1858 8.0964 33.1482 8.8309 33.133C9.62915 33.1161 10.1554 33.5937 10.1731 34.3274V34.3276ZM15.7231 50.4666C16.2376 49.8939 16.9304 49.8434 17.4771 50.3152C17.6032 50.4226 17.706 50.5552 17.779 50.7046C17.8519 50.854 17.8935 51.017 17.9012 51.1834C17.9088 51.3498 17.8823 51.516 17.8233 51.6716C17.7643 51.8272 17.6741 51.9688 17.5584 52.0875C15.8767 53.9855 14.1871 55.8763 12.4894 57.7598C12.3275 57.9601 12.1057 58.102 11.8573 58.1643C11.6088 58.2266 11.347 58.2059 11.1111 58.1054C10.882 58.005 10.6833 57.845 10.5355 57.6417C10.3876 57.4385 10.2959 57.1992 10.2696 56.9484C10.3942 56.6273 10.556 56.3223 10.7516 56.0398C12.3956 54.1693 14.0599 52.3177 15.7236 50.4664L15.7231 50.4666ZM50.3914 49.2364C52.2256 50.9892 54.0431 52.7597 55.8441 54.5479C56.0176 54.7698 56.1518 55.0203 56.2409 55.2884C56.2054 55.9625 55.9846 56.3464 55.5159 56.5526C55.2922 56.6611 55.0404 56.6957 54.7961 56.6515C54.5519 56.6073 54.3276 56.4866 54.1551 56.3065C53.6616 55.8437 53.1841 55.3636 52.6991 54.8919C51.4093 53.6375 50.1191 52.3839 48.8284 51.1312C48.6416 50.981 48.5026 50.7788 48.4284 50.5497C48.3543 50.3205 48.3484 50.0744 48.4114 49.8419C48.4619 49.6378 48.564 49.4503 48.7077 49.2979C48.8514 49.1455 49.0318 49.0333 49.2313 48.9723C49.4308 48.9113 49.6425 48.9036 49.8459 48.9499C50.0492 48.9961 50.2372 49.0949 50.3914 49.2364Z" fill="#E5E200"/>
</svg>
