<svg width="71" height="68" viewBox="0 0 71 68" fill="none" xmlns="http://www.w3.org/2000/svg">
<path fill-rule="evenodd" clip-rule="evenodd" d="M10.7062 67.5913H60.2935C67.7731 67.5913 72.2053 59.526 68.8813 52.8514L43.9489 6.12864C43.1567 4.55975 41.9479 3.24207 40.4566 2.32164C38.9652 1.40122 37.2495 0.914001 35.4997 0.914001C33.7498 0.914001 32.0341 1.40122 30.5427 2.32164C29.0514 3.24207 27.8426 4.55975 27.0505 6.12864L2.11836 52.8514C-1.20594 59.526 3.22656 67.5913 10.7062 67.5913ZM36.4693 45.6207H34.5301C32.5912 45.6207 32.8681 43.952 32.8681 42.0051L30.9289 21.4249C30.9465 20.4708 31.3316 19.5608 32.003 18.8864C32.6745 18.212 33.58 17.8259 34.5289 17.8092H36.4681C37.4169 17.8259 38.3224 18.212 38.9939 18.8864C39.6653 19.5608 40.0504 20.4708 40.0681 21.4249L38.1316 42.0066C38.1316 43.952 38.41 45.6207 36.4693 45.6207ZM35.3614 56.4667C37.9624 56.4667 40.0714 54.8483 40.0714 52.8514C40.0714 50.8544 37.963 49.2361 35.3614 49.2361C32.7598 49.2361 30.6514 50.8547 30.6514 52.8514C30.6514 54.848 32.7604 56.4667 35.3614 56.4667Z" fill="#CE061C"/>
</svg>
