<svg width="32" height="58" viewBox="0 0 32 58" fill="none" xmlns="http://www.w3.org/2000/svg">
<path d="M18.5522 37.3822V12.3889C18.5522 11.7111 18.283 11.0611 17.8037 10.5818C17.3245 10.1025 16.6745 9.8333 15.9967 9.8333C15.3189 9.8333 14.6689 10.1025 14.1896 10.5818C13.7104 11.0611 13.4411 11.7111 13.4411 12.3889V37.3822C12.6686 37.8282 12.0263 38.4685 11.578 39.2396C11.1297 40.0108 10.891 40.8858 10.8856 41.7777C10.8856 43.1333 11.4241 44.4333 12.3826 45.3918C13.3411 46.3504 14.6411 46.8889 15.9967 46.8889C17.3522 46.8889 18.6523 46.3504 19.6108 45.3918C20.5693 44.4333 21.1078 43.1333 21.1078 41.7777C21.1024 40.8858 20.8637 40.0108 20.4154 39.2396C19.967 38.4685 19.3247 37.8282 18.5522 37.3822ZM27.4967 31.5555V12.3889C27.4967 9.33887 26.2851 6.41379 24.1284 4.25713C21.9717 2.10046 19.0467 0.888855 15.9967 0.888855C12.9467 0.888855 10.0216 2.10046 7.86495 4.25713C5.70828 6.41379 4.49668 9.33887 4.49668 12.3889V31.5555C2.73039 33.557 1.51723 35.985 0.9772 38.5992C0.437171 41.2135 0.588987 43.9234 1.41763 46.461C2.24627 48.9985 3.72303 51.2758 5.70183 53.0675C7.68062 54.8592 10.0929 56.1033 12.7 56.6766C13.783 56.9235 14.8867 57.0689 15.9967 57.1111C18.9627 57.1249 21.8691 56.2781 24.3636 54.6734C26.8581 53.0687 28.8337 50.775 30.0508 48.0702C31.268 45.3653 31.6746 42.3656 31.2212 39.4343C30.7679 36.5031 29.4741 33.7663 27.4967 31.5555ZM22.3856 49.6233C21.0396 50.7177 19.4372 51.4515 17.7293 51.7557C16.0214 52.0599 14.2642 51.9244 12.6231 51.362C10.982 50.7997 9.51104 49.8289 8.34868 48.5411C7.18631 47.2534 6.37079 45.691 5.9789 44.0011C5.58408 42.2928 5.63528 40.5117 6.12758 38.8289C6.61988 37.1462 7.53673 35.6183 8.79001 34.3922C9.03148 34.1555 9.22358 33.8733 9.35518 33.5618C9.48679 33.2503 9.55527 32.9159 9.55668 32.5777V12.3889C9.55668 10.6944 10.2298 9.06938 11.4279 7.87123C12.6261 6.67308 14.2511 5.99997 15.9456 5.99997C17.64 5.99997 19.265 6.67308 20.4632 7.87123C21.6613 9.06938 22.3345 10.6944 22.3345 12.3889V32.68C22.3359 33.0181 22.4043 33.3526 22.5359 33.664C22.6676 33.9755 22.8597 34.2577 23.1011 34.4944C24.1457 35.5035 24.9633 36.7237 25.4993 38.0735C26.0354 39.4234 26.2776 40.872 26.2099 42.3228C26.1422 43.7737 25.7661 45.1934 25.1067 46.4875C24.4472 47.7816 23.5196 48.9203 22.3856 49.8277V49.6233Z" fill="white"/>
</svg>
