<svg width="80" height="80" viewBox="0 0 80 80" fill="none" xmlns="http://www.w3.org/2000/svg">
<circle cx="40" cy="40" r="40" fill="white"/>
<g clip-path="url(#clip0)">
<path d="M62.1002 28.8918V55.2634C62.1002 55.2634 54.2943 50.138 40.4048 53.5484C25.77 50.0988 18.7497 55.2242 18.7497 55.2242V28.8918H16V56.41H36.95C36.9903 58.1249 38.6321 59.4969 40.6667 59.4969C42.7012 59.4969 44.3531 58.1249 44.3833 56.41H65.3333V28.8918H62.1002Z" fill="#F08B22"/>
<path d="M60.1074 52.2548V22.414C58.6167 21.7672 57.0958 21.3066 55.6051 21.0028V34.9089L52.9058 32.7334L50.2064 34.9089V20.5031C47.2654 20.5031 44.3747 20.9636 41.4336 21.4928V51.3336C47.6481 50.1576 53.8727 49.5892 60.1074 52.2548Z" fill="#F08B22"/>
<path d="M20.7422 22.4151V52.2559C26.9668 49.5903 33.2014 50.1587 39.426 51.3445V21.5429C33.1913 20.3571 26.9668 19.7888 20.7422 22.4151ZM37.1094 46.7483C36.9885 47.2775 36.4447 47.5911 35.8907 47.4735C31.469 46.4053 28.0143 46.1015 24.5293 47.8949C23.8444 48.1987 23.3509 47.8165 23.1595 47.4735C22.8876 47.0129 23.0789 46.4445 23.5523 46.1799C28.0546 43.8574 32.5266 44.6511 36.3641 45.5723C36.918 45.6899 37.2303 46.2191 37.1094 46.7483ZM37.1094 41.3192C36.9885 41.8484 36.4447 42.162 35.8907 42.0444C31.469 40.9762 28.0143 40.6724 24.5293 42.4658C23.8444 42.7696 23.3509 42.3874 23.1595 42.0444C22.8876 41.5838 23.0789 41.0154 23.5523 40.7508C28.0546 38.4282 32.5266 39.222 36.3641 40.1432C36.918 40.251 37.2303 40.79 37.1094 41.3192ZM37.1094 36.086C36.9885 36.6152 36.4447 36.9288 35.8907 36.8112C31.469 35.743 28.0143 35.4392 24.5293 37.2326C23.8444 37.5364 23.3509 37.1542 23.1595 36.8112C22.8876 36.3506 23.0789 35.7822 23.5523 35.5176C28.0546 33.195 32.5266 33.9888 36.3641 34.91C36.918 35.0178 37.2303 35.547 37.1094 36.086ZM37.1094 31.2645C36.9885 31.7937 36.4447 32.1072 35.8907 31.9896C31.469 30.9215 28.0143 30.6177 24.5293 32.411C23.8444 32.7148 23.3509 32.3326 23.1595 31.9896C22.8876 31.5291 23.0789 30.9607 23.5523 30.6961C28.0546 28.3735 32.5266 29.1673 36.3641 30.0885C36.918 30.1963 37.2303 30.7255 37.1094 31.2645ZM37.1094 25.9627C36.9885 26.4919 36.4447 26.8055 35.8907 26.6879C31.469 25.6197 28.0143 25.3159 24.5293 27.1093C23.8444 27.4131 23.3509 27.0309 23.1595 26.6879C22.8876 26.2273 23.0789 25.6589 23.5523 25.3943C28.0546 23.0717 32.5266 23.8655 36.3641 24.7867C36.918 24.8945 37.2303 25.4335 37.1094 25.9627Z" fill="#F08B22"/>
</g>
<defs>
<clipPath id="clip0">
<rect width="49.3333" height="48" fill="white" transform="translate(16 16)"/>
</clipPath>
</defs>
</svg>
