<svg width="80" height="80" viewBox="0 0 80 80" fill="none" xmlns="http://www.w3.org/2000/svg">
<circle cx="40" cy="40" r="40" fill="#57576D"/>
<g clip-path="url(#clip0)">
<path d="M56.002 31.1113C57.3027 30.9265 58.5568 30.334 59.5574 29.3334C62.0119 26.8788 62.012 22.899 59.5575 20.4445C57.1026 17.9899 53.1231 17.9899 50.6686 20.4446C49.6681 21.4451 49.0756 22.6994 48.8907 24L40.8907 16L32.002 24.8889C33.3029 25.0738 34.5568 25.6663 35.5573 26.6668C38.012 29.1213 38.012 33.1012 35.5573 35.5557C33.1027 38.0102 29.1231 38.0102 26.6685 35.5557C25.6679 34.5552 25.0754 33.301 24.8906 32.0002L16.002 40.8888L24.0021 48.8889C22.7011 49.0738 21.4471 49.6663 20.4464 50.6668C17.992 53.1214 17.9919 57.1011 20.4464 59.5556C22.9011 62.0102 26.8808 62.0102 29.3353 59.5557C30.3358 58.5551 30.9284 57.301 31.1132 56.0003L39.113 64.0001L48.0018 55.1113C46.7008 54.9265 45.447 54.334 44.4463 53.3334C41.9916 50.8788 41.9916 46.8992 44.4463 44.4445C46.9009 41.9901 50.8805 41.9899 53.3351 44.4445C54.3359 45.4453 54.9281 46.6992 55.113 47.9999L64.0018 39.1111L56.002 31.1113Z" fill="white"/>
</g>
<defs>
<clipPath id="clip0">
<rect width="48" height="48" fill="white" transform="translate(16 16)"/>
</clipPath>
</defs>
</svg>
