<?xml version="1.0" encoding="utf-8"?>
<!-- Generator: Adobe Illustrator 25.4.1, SVG Export Plug-In . SVG Version: 6.00 Build 0)  -->
<svg version="1.1" id="App_Icon_Kit_A" xmlns="http://www.w3.org/2000/svg" xmlns:xlink="http://www.w3.org/1999/xlink" x="0px"
	 y="0px" viewBox="0 0 1024 1024" style="enable-background:new 0 0 1024 1024;" xml:space="preserve">
<style type="text/css">
	.st0{fill:url(#App_Icon_Placeholder_00000127044653246404755820000014236829286620681649_);}
	.st1{fill:#FFFFFF;}
	.st2{opacity:0.71;}
	.st3{fill:#FE1211;}
</style>
<symbol  id="Icon" viewBox="-512 -512 1024 1024">
	
		<linearGradient id="App_Icon_Placeholder_00000100348580774453212040000012256643730483080846_" gradientUnits="userSpaceOnUse" x1="-955.9" y1="-955.9" x2="-68.1" y2="-68.1" gradientTransform="matrix(1 0 0 1 512 512)">
		<stop  offset="0" style="stop-color:#2C917E"/>
		<stop  offset="5.304026e-03" style="stop-color:#258C78"/>
		<stop  offset="2.279595e-02" style="stop-color:#147F6A"/>
		<stop  offset="4.457131e-02" style="stop-color:#097660"/>
		<stop  offset="7.512869e-02" style="stop-color:#02705B"/>
		<stop  offset="0.16" style="stop-color:#006F59"/>
		<stop  offset="0.3761" style="stop-color:#03725C"/>
		<stop  offset="0.5643" style="stop-color:#0E7A64"/>
		<stop  offset="0.7419" style="stop-color:#208773"/>
		<stop  offset="0.9122" style="stop-color:#399A87"/>
		<stop  offset="1" style="stop-color:#49A694"/>
	</linearGradient>
	
		<path id="App_Icon_Placeholder_00000062173620130765563690000003593757049968158344_" style="fill:url(#App_Icon_Placeholder_00000100348580774453212040000012256643730483080846_);" d="
		M-155,512h310c102.8,0,154.2,0,209.5-17.5c60.4-22,108-69.6,130-130C512,309.2,512,257.8,512,155v-310c0-102.8,0-154.2-17.5-209.5
		c-22-60.4-69.6-108-130-130C309.2-512,257.8-512,155-512h-310c-102.8,0-154.2,0-209.5,17.5c-60.4,22-108,69.6-130,130
		C-512-309.2-512-257.8-512-155v310c0,102.8,0,154.2,17.5,209.5c22,60.4,69.6,108,130,130C-309.2,512-257.8,512-155,512L-155,512"/>
	<g>
		<g id="Layer_2_00000103985348906672263970000012412286837124976046_">
			<path class="st1" d="M11.6,394.7c63.7,0,123.6-10.8,160-69.5c21.8-35,22.4-73.4-18.5-94.4c-44.7-22.9-57.4,12.1-67.6,47.2
				c-10.8,37.5-19,86.6-73.4,74c-57.4-13.5-56-65.1-51-112.3c5-44.7,31.2-78.4,60.4-110.4C74.5,69.9,132.5,15,178.3-49.3
				c69.5-96.9,56-209.7-23.5-281.7C69.3-407.5-99-417.2-177.9-349.5c-23.5,20.4-41.4,44.7-44.7,77.3c-2.5,32.6,0.6,63.7,36.4,75.3
				c40.8,13.5,53.5-16.6,61.8-48.6c3.3-11.6,6.9-23.5,10.2-35c10.8-45.3,38.4-67.1,85.5-65.1c51,1.9,78.4,30.6,88,77.3
				C74-197.8,52.5-136.5,5.3-83C-46.9-23.1-100.7,34.8-149,98c-49.1,63.7-54.9,137.1-17.9,207.2C-130.5,373.4-64.3,397.1,11.6,394.7
				z"/>
		</g>
	</g>
</symbol>
<g id="Notifications_and_Activity_-_Preview">
	<g id="Loading">
		<g>
			<defs>
				<rect id="SVGID_1_" x="1859.1" y="1077.4" width="120" height="120"/>
			</defs>
			<clipPath id="SVGID_00000023960479251158021620000000769898362929547433_">
				<use xlink:href="#SVGID_1_"  style="overflow:visible;"/>
			</clipPath>
			<g style="clip-path:url(#SVGID_00000023960479251158021620000000769898362929547433_);">
				
					<use xlink:href="#Icon"  width="1024" height="1024" x="-512" y="-512" transform="matrix(0.1172 0 0 -0.1172 1919.0704 1137.3715)" style="overflow:visible;"/>
			</g>
		</g>
		<g id="App_Icon_Loading_Indicator_Overlay_2_" class="st2">
			<path d="M1918.1,1103.6c-18.2,0-33,14.8-33,33s14.8,33,33,33s33-14.8,33-33c0-2-0.2-3.9-0.5-5.8l-32.5,5.8V1103.6z"/>
			<path d="M1977,1094.7c-2.6-7.1-8.2-12.7-15.2-15.2c-6.5-2-12.5-2-24.6-2h-36.3c-12,0-18.1,0-24.6,2c-7.1,2.6-12.7,8.2-15.2,15.2
				c-2.1,6.5-2.1,12.5-2.1,24.6v36.3c0,12,0,18.1,2.1,24.6c2.6,7.1,8.2,12.7,15.2,15.2c6.5,2.1,12.5,2.1,24.6,2.1h36.3
				c12,0,18.1,0,24.6-2.1c7.1-2.6,12.7-8.2,15.2-15.2c2.1-6.5,2.1-12.5,2.1-24.6v-36.3C1979.1,1107.2,1979.1,1101.1,1977,1094.7z
				 M1919.1,1176.4c-21.5,0-39-17.5-39-39s17.5-39,39-39s39,17.5,39,39S1940.6,1176.4,1919.1,1176.4z"/>
		</g>
	</g>
	<g id="Two_Digit_Badge">
		<g>
			<defs>
				<rect id="SVGID_00000180341359196708121010000000653763781522557872_" x="1638.6" y="1077" width="120" height="120"/>
			</defs>
			<clipPath id="SVGID_00000026866193146892276390000012010602036033932456_">
				<use xlink:href="#SVGID_00000180341359196708121010000000653763781522557872_"  style="overflow:visible;"/>
			</clipPath>
			<g style="clip-path:url(#SVGID_00000026866193146892276390000012010602036033932456_);">
				
					<use xlink:href="#Icon"  width="1024" height="1024" x="-512" y="-512" transform="matrix(0.1172 0 0 -0.1172 1698.5704 1137.001)" style="overflow:visible;"/>
			</g>
		</g>
		<g id="Badge_4_">
			<path id="Badge_Background_6_" class="st3" d="M1753.6,1104.3h-16c-13.3,0-24-10.7-24-24l0,0c0-13.3,10.7-24,24-24h16
				c13.3,0,24,10.7,24,24l0,0C1777.6,1093.5,1766.8,1104.3,1753.6,1104.3z"/>
			<text transform="matrix(1 0 0 1 1728.834 1091.5332)" class="st1" style="font-family:'OpenSans'; font-size:32px;">34</text>
		</g>
	</g>
	<g id="One_Digit_Badge">
		<g>
			<defs>
				<rect id="SVGID_00000076575235232635507250000002157026875175933084_" x="1417.6" y="1076.8" width="120" height="120"/>
			</defs>
			<clipPath id="SVGID_00000132045826401201466610000010510633210922451376_">
				<use xlink:href="#SVGID_00000076575235232635507250000002157026875175933084_"  style="overflow:visible;"/>
			</clipPath>
			<g style="clip-path:url(#SVGID_00000132045826401201466610000010510633210922451376_);">
				
					<use xlink:href="#Icon"  width="1024" height="1024" x="-512" y="-512" transform="matrix(0.1172 0 0 -0.1172 1477.5704 1136.8475)" style="overflow:visible;"/>
			</g>
		</g>
		<g id="Badge_1_">
			<g id="Badge_Background_1_">
				<path class="st3" d="M1557.6,1081c0,12.2-10,22.2-22.2,22.2h-2.5c-12.2,0-22.2-10-22.2-22.2v-2.5c0-12.2,10-22.2,22.2-22.2h2.5
					c12.2,0,22.2,10,22.2,22.2V1081z"/>
			</g>
			<text transform="matrix(1 0 0 1 1526.042 1091.5332)" class="st1" style="font-family:'OpenSans'; font-size:32px;">1</text>
		</g>
	</g>
	<text transform="matrix(1 0 0 1 1423.5706 983.071)" style="font-family:'OpenSans'; font-size:33px;">Notifications and Activity</text>
</g>
<g id="Settings_Icon_-_Preview_Sizes">
	<g id="_x32_9_1_">
		<g>
			<defs>
				<rect id="SVGID_00000146501332127351375440000003409250444141096619_" x="2034" y="718" width="29" height="29"/>
			</defs>
			<clipPath id="SVGID_00000124866855761858422310000013997211604144375952_">
				<use xlink:href="#SVGID_00000146501332127351375440000003409250444141096619_"  style="overflow:visible;"/>
			</clipPath>
			<g style="clip-path:url(#SVGID_00000124866855761858422310000013997211604144375952_);">
				
					<use xlink:href="#Icon"  width="1024" height="1024" x="-512" y="-512" transform="matrix(2.832031e-02 0 0 -2.832031e-02 2048.5 732.5)" style="overflow:visible;"/>
			</g>
		</g>
		<text transform="matrix(1 0 0 1 2036.7112 791.2036)" style="font-family:'OpenSans'; font-size:20px;">29</text>
	</g>
	<g id="_x35_8_1_">
		<g>
			<defs>
				<rect id="SVGID_00000067948784577187853430000008411337009969987728_" x="1875" y="703" width="58" height="58"/>
			</defs>
			<clipPath id="SVGID_00000041291048796205264760000011611140869738714039_">
				<use xlink:href="#SVGID_00000067948784577187853430000008411337009969987728_"  style="overflow:visible;"/>
			</clipPath>
			
				<g transform="matrix(1 0 0 1 1.220703e-04 0)" style="clip-path:url(#SVGID_00000041291048796205264760000011611140869738714039_);">
				
					<use xlink:href="#Icon"  width="1024" height="1024" x="-512" y="-512" transform="matrix(5.664062e-02 0 0 -5.664062e-02 1904 732.0294)" style="overflow:visible;"/>
			</g>
		</g>
		<text transform="matrix(1 0 0 1 1890.0012 805.7328)" style="font-family:'OpenSans'; font-size:20px;">58</text>
	</g>
	<g id="_x38_7">
		<g>
			<defs>
				<rect id="SVGID_00000169518635428050791910000018105533815367677568_" x="1665" y="689" width="87" height="87"/>
			</defs>
			<clipPath id="SVGID_00000165225157532520747790000007199607639889652393_">
				<use xlink:href="#SVGID_00000169518635428050791910000018105533815367677568_"  style="overflow:visible;"/>
			</clipPath>
			
				<g transform="matrix(1 0 0 1 -1.220703e-04 0)" style="clip-path:url(#SVGID_00000165225157532520747790000007199607639889652393_);">
				
					<use xlink:href="#Icon"  width="1024" height="1024" x="-512" y="-512" transform="matrix(8.496094e-02 0 0 -8.496094e-02 1708.5 732.4688)" style="overflow:visible;"/>
			</g>
		</g>
		<text transform="matrix(1 0 0 1 1696.8496 820.2349)" style="font-family:'OpenSans'; font-size:20px;">87</text>
	</g>
	<text transform="matrix(1 0 0 1 1405.8274 707.5002)" style="font-family:'OpenSans'; font-size:33px;">Settings</text>
	<text transform="matrix(1 0 0 1 1405.8274 747.1002)" style="font-family:'OpenSans'; font-size:33px;">icon </text>
</g>
<g id="Spotlight_Icon_-_Preview_Sizes">
	<g id="_x32_9_3_">
		<g>
			<defs>
				<rect id="SVGID_00000182530867338577761320000005466747627156606100_" x="2294" y="422" width="29" height="28.9"/>
			</defs>
			<clipPath id="SVGID_00000030457941097101838360000008885620625905337763_">
				<use xlink:href="#SVGID_00000182530867338577761320000005466747627156606100_"  style="overflow:visible;"/>
			</clipPath>
			<g transform="matrix(1 0 0 1 0 0)" style="clip-path:url(#SVGID_00000030457941097101838360000008885620625905337763_);">
				
					<use xlink:href="#Icon"  width="1024" height="1024" x="-512" y="-512" transform="matrix(2.829522e-02 0 0 -2.826913e-02 2308.5129 436.4738)" style="overflow:visible;"/>
			</g>
		</g>
		<text transform="matrix(1.0009 0 0 1 2293.6318 495.0723)" style="font-family:'OpenSans'; font-size:19.9639px;">29</text>
	</g>
	<g id="_x34_0_2_">
		<g>
			<defs>
				<rect id="SVGID_00000013876346809983306640000011214333395465854399_" x="2204" y="416" width="40" height="40"/>
			</defs>
			<clipPath id="SVGID_00000021815952950221848010000003996495775406666421_">
				<use xlink:href="#SVGID_00000013876346809983306640000011214333395465854399_"  style="overflow:visible;"/>
			</clipPath>
			<g style="clip-path:url(#SVGID_00000021815952950221848010000003996495775406666421_);">
				
					<use xlink:href="#Icon"  width="1024" height="1024" x="-512" y="-512" transform="matrix(3.906250e-02 0 0 -3.906250e-02 2224 436)" style="overflow:visible;"/>
			</g>
		</g>
		<text transform="matrix(1 0 0 1 2209 500.7037)" style="font-family:'OpenSans'; font-size:20px;">40</text>
	</g>
	<g id="_x35_8_3_">
		<g>
			<defs>
				<rect id="SVGID_00000016796063948485590350000007504677669584364188_" x="2023" y="407.1" width="58" height="58"/>
			</defs>
			<clipPath id="SVGID_00000097477890596755076940000007384516146763748493_">
				<use xlink:href="#SVGID_00000016796063948485590350000007504677669584364188_"  style="overflow:visible;"/>
			</clipPath>
			<g style="clip-path:url(#SVGID_00000097477890596755076940000007384516146763748493_);">
				
					<use xlink:href="#Icon"  width="1024" height="1024" x="-512" y="-512" transform="matrix(5.664062e-02 0 0 -5.664062e-02 2052 436.1051)" style="overflow:visible;"/>
			</g>
		</g>
		<text transform="matrix(1 0 0 1 2035.2112 509.8087)" style="font-family:'OpenSans'; font-size:20px;">58</text>
	</g>
	<g id="_x38_0_2_">
		<g>
			<defs>
				<rect id="SVGID_00000101817253238617956030000014021938111864676775_" x="1864" y="396" width="80" height="80"/>
			</defs>
			<clipPath id="SVGID_00000118374498289046068150000017879589784711524496_">
				<use xlink:href="#SVGID_00000101817253238617956030000014021938111864676775_"  style="overflow:visible;"/>
			</clipPath>
			<g style="clip-path:url(#SVGID_00000118374498289046068150000017879589784711524496_);">
				
					<use xlink:href="#Icon"  width="1024" height="1024" x="-512" y="-512" transform="matrix(7.812500e-02 0 0 -7.812500e-02 1904 436)" style="overflow:visible;"/>
			</g>
		</g>
		<text transform="matrix(1 0 0 1 1890.0012 519.7036)" style="font-family:'OpenSans'; font-size:20px;">80</text>
	</g>
	<g id="_x31_20_1_">
		<g>
			<defs>
				<rect id="SVGID_00000013891179746281595680000001947325393017830290_" x="1648" y="376" width="120" height="120"/>
			</defs>
			<clipPath id="SVGID_00000086663037524433893820000010775471306601709759_">
				<use xlink:href="#SVGID_00000013891179746281595680000001947325393017830290_"  style="overflow:visible;"/>
			</clipPath>
			<g style="clip-path:url(#SVGID_00000086663037524433893820000010775471306601709759_);">
				
					<use xlink:href="#Icon"  width="1024" height="1024" x="-512" y="-512" transform="matrix(0.1172 0 0 -0.1172 1708 436)" style="overflow:visible;"/>
			</g>
		</g>
		<text transform="matrix(1 0 0 1 1682.3496 539.7661)" style="font-family:'OpenSans'; font-size:20px;">120</text>
	</g>
	<text transform="matrix(1 0 0 1 1407.0913 402.0238)" style="font-family:'OpenSans'; font-size:33px;">Spotlight </text>
	<text transform="matrix(1 0 0 1 1407.0913 441.6238)" style="font-family:'OpenSans'; font-size:33px;">Icon </text>
</g>
<g id="App_Icon_-_Preview_Sizes">
	<g id="_x35_7">
		<g>
			<defs>
				<rect id="SVGID_00000057110932888886281650000005848521449454522264_" x="2292" y="88" width="57" height="57"/>
			</defs>
			<clipPath id="SVGID_00000182513838696586437720000011982816984972750746_">
				<use xlink:href="#SVGID_00000057110932888886281650000005848521449454522264_"  style="overflow:visible;"/>
			</clipPath>
			<g style="clip-path:url(#SVGID_00000182513838696586437720000011982816984972750746_);">
				
					<use xlink:href="#Icon"  width="1024" height="1024" x="-512" y="-512" transform="matrix(5.566406e-02 0 0 -5.566406e-02 2320.5 116.5)" style="overflow:visible;"/>
			</g>
		</g>
		<text transform="matrix(1 0 0 1 2305.6055 190.2039)" style="font-family:'OpenSans'; font-size:20px;">57</text>
	</g>
	<g id="_x36_0">
		<g>
			<defs>
				<rect id="SVGID_00000176736965229535664050000007951021289536439485_" x="2198" y="86" width="60" height="60"/>
			</defs>
			<clipPath id="SVGID_00000129890641325815582960000006070571040232734365_">
				<use xlink:href="#SVGID_00000176736965229535664050000007951021289536439485_"  style="overflow:visible;"/>
			</clipPath>
			<g style="clip-path:url(#SVGID_00000129890641325815582960000006070571040232734365_);">
				
					<use xlink:href="#Icon"  width="1024" height="1024" x="-512" y="-512" transform="matrix(5.859375e-02 0 0 -5.859375e-02 2228 116)" style="overflow:visible;"/>
			</g>
		</g>
		<text transform="matrix(1 0 0 1 2213 190.7037)" style="font-family:'OpenSans'; font-size:20px;">60</text>
	</g>
	<g id="_x31_14">
		<g>
			<defs>
				<rect id="SVGID_00000087390173634659018050000008053098695384064175_" x="2015.1" y="59" width="113.8" height="113.8"/>
			</defs>
			<clipPath id="SVGID_00000085969220239474135900000013685678762789226401_">
				<use xlink:href="#SVGID_00000087390173634659018050000008053098695384064175_"  style="overflow:visible;"/>
			</clipPath>
			
				<g transform="matrix(1 0 0 1 0 -7.629395e-06)" style="clip-path:url(#SVGID_00000085969220239474135900000013685678762789226401_);">
				
					<use xlink:href="#Icon"  width="1024" height="1024" x="-512" y="-512" transform="matrix(0.1111 0 0 -0.1111 2072 115.8842)" style="overflow:visible;"/>
			</g>
		</g>
		<text transform="matrix(1 0 0 1 2055.2456 217.3813)" style="font-family:'OpenSans'; font-size:19.9594px;">114</text>
	</g>
	<g id="_x31_20">
		<g>
			<defs>
				<rect id="SVGID_00000092450719153067476400000014103548823210051252_" x="1860" y="56" width="120" height="120"/>
			</defs>
			<clipPath id="SVGID_00000129164019101372398160000016091860320265652155_">
				<use xlink:href="#SVGID_00000092450719153067476400000014103548823210051252_"  style="overflow:visible;"/>
			</clipPath>
			<g style="clip-path:url(#SVGID_00000129164019101372398160000016091860320265652155_);">
				
					<use xlink:href="#Icon"  width="1024" height="1024" x="-512" y="-512" transform="matrix(0.1172 0 0 -0.1172 1920 116)" style="overflow:visible;"/>
			</g>
		</g>
		<text transform="matrix(1 0 0 1 1900.0012 219.7036)" style="font-family:'OpenSans'; font-size:20px;">120</text>
	</g>
	<g id="_x31_80">
		<text transform="matrix(1 0 0 1 1682.3496 249.7661)" style="font-family:'OpenSans'; font-size:20px;">180</text>
	</g>
	<text id="App_icon_text" transform="matrix(1 0 0 1 1404.0912 63.5015)" style="font-family:'OpenSans'; font-size:33px;">App Icon </text>
	<g>
		<defs>
			<rect id="SVGID_00000024003292475756212440000010851010916974573455_" x="1618" y="26" width="180" height="180"/>
		</defs>
		<clipPath id="SVGID_00000049903612278897320480000007649643854772013478_">
			<use xlink:href="#SVGID_00000024003292475756212440000010851010916974573455_"  style="overflow:visible;"/>
		</clipPath>
		<g style="clip-path:url(#SVGID_00000049903612278897320480000007649643854772013478_);">
			
				<use xlink:href="#Icon"  width="1024" height="1024" x="-512" y="-512" transform="matrix(0.1758 0 0 -0.1758 1708 116)" style="overflow:visible;"/>
		</g>
	</g>
</g>
<g id="App_Icon_and_Badge_-_Main">
	<g id="_x31_024">
		<g>
			<defs>
				<rect id="SVGID_00000119112665413629963750000007148652389001630902_" x="0" width="1024" height="1024"/>
			</defs>
			<clipPath id="SVGID_00000026865468616619744360000009773077767684761224_">
				<use xlink:href="#SVGID_00000119112665413629963750000007148652389001630902_"  style="overflow:visible;"/>
			</clipPath>
			<g style="clip-path:url(#SVGID_00000026865468616619744360000009773077767684761224_);">
				
					<use xlink:href="#Icon"  width="1024" height="1024" id="XMLID_00000021105039125235634900000002943228294412109965_" x="-512" y="-512" transform="matrix(1 0 0 -1 511.9999 512)" style="overflow:visible;"/>
			</g>
		</g>
	</g>
</g>
</svg>
