<svg width="33" height="16" viewBox="0 0 33 16" fill="none" xmlns="http://www.w3.org/2000/svg">
<path fill-rule="evenodd" clip-rule="evenodd" d="M32.6397 1.46742H20.4286C20.3589 1.46742 20.2921 1.43732 20.2429 1.38374C20.1936 1.33016 20.166 1.25749 20.166 1.18171C20.166 1.10593 20.1936 1.03326 20.2429 0.97968C20.2921 0.926098 20.3589 0.895996 20.4286 0.895996H32.6397C32.7093 0.895996 32.7761 0.926098 32.8254 0.97968C32.8746 1.03326 32.9023 1.10593 32.9023 1.18171C32.9023 1.25749 32.8746 1.33016 32.8254 1.38374C32.7761 1.43732 32.7093 1.46742 32.6397 1.46742ZM25.812 6.163C21.9917 5.96971 21.1275 4.25771 20.4417 2.03885H32.6266C31.9484 4.23214 31.1471 5.92985 27.3876 6.15543V8.03885H27.9128C28.1217 8.03885 28.3221 8.12916 28.4699 8.28991C28.6176 8.45065 28.7006 8.66867 28.7006 8.896C28.7006 9.12332 28.6176 9.34134 28.4699 9.50209C28.3221 9.66283 28.1217 9.75314 27.9128 9.75314H18.3934V10.1011C18.3934 11.1176 19.3542 12.917 20.4942 13.7531C21.7751 14.6926 23.2516 14.6103 23.2516 14.6103V16.896H10.1213V14.7531C10.1213 14.7531 11.6749 14.6531 12.8787 13.7531C14.1039 12.837 14.9795 11.1103 14.9795 10.022V9.75314H5.46008C5.25113 9.75314 5.05075 9.66283 4.90301 9.50209C4.75526 9.34134 4.67226 9.12332 4.67226 8.896C4.67226 8.66867 4.75526 8.45065 4.90301 8.28991C5.05075 8.12916 5.25113 8.03885 5.46008 8.03885H5.98529V6.15543C2.22557 5.92985 1.42423 4.23214 0.746316 2.03885H12.9312C12.2454 4.25771 11.3818 5.96971 7.56092 6.163V8.03885H14.9861C15.0186 7.68648 15.1703 7.35982 15.4117 7.12225C15.6531 6.88468 15.967 6.75313 16.2925 6.75314H17.0804C17.4059 6.75313 17.7198 6.88468 17.9612 7.12225C18.2026 7.35982 18.3543 7.68648 18.3868 8.03885H25.812V6.163ZM16.6864 7.896C16.5047 7.896 16.327 7.95465 16.1758 8.06453C16.0247 8.17441 15.9069 8.33059 15.8373 8.51331C15.7677 8.69604 15.7495 8.89711 15.785 9.09109C15.8204 9.28507 15.908 9.46325 16.0365 9.6031C16.1651 9.74296 16.3288 9.8382 16.5071 9.87678C16.6854 9.91537 16.8702 9.89556 17.0382 9.81988C17.2061 9.74419 17.3497 9.61602 17.4507 9.45157C17.5517 9.28712 17.6056 9.09378 17.6056 8.896C17.6056 8.63078 17.5087 8.37643 17.3364 8.18889C17.164 8.00135 16.9302 7.896 16.6864 7.896ZM12.9443 1.46742H0.733186C0.663539 1.46742 0.596744 1.43732 0.547496 1.38374C0.498248 1.33016 0.470581 1.25749 0.470581 1.18171C0.470581 1.10593 0.498248 1.03326 0.547496 0.97968C0.596744 0.926098 0.663539 0.895996 0.733186 0.895996H12.9443C13.014 0.895996 13.0808 0.926098 13.13 0.97968C13.1793 1.03326 13.2069 1.10593 13.2069 1.18171C13.2069 1.25749 13.1793 1.33016 13.13 1.38374C13.0808 1.43732 13.014 1.46742 12.9443 1.46742Z" fill="#CBCBCB"/>
</svg>
