<svg id="scale-svg" class="weight-on-left-2 maxw" width="545px" height="172px" viewBox="0 0 545 172" version="1.1" xmlns="http://www.w3.org/2000/svg" xmlns:xlink="http://www.w3.org/1999/xlink" overflow="visible">
  <g id="scale-plates-axe" data-svg-origin="271.55843555927277 47.3829208612442" transform="matrix(0.99904,0.04361,-0.04361,0.99904,2.3246697602494373,-11.926481258519225)" style="transform-origin: 0px 0px 0px;">
    <g class="scale-right-plate" data-svg-origin="457.81341552734375 90.65838074684143" transform="matrix(0.99904,-0.04361,0.04361,0.99904,-3.518726099275682,20.0558274031533)" style="transform-origin: 0px 0px 0px;">
      <path d="M372.216593,0.24 C371.016153,0.24 370.375918,2.88 371.096182,4.72 C384.781204,37.92 418.393539,61.2 457.687959,61.12 C497.542584,61.04 531.555066,37.28 544.679883,3.28 C545.240088,1.84 544.199706,0.32 542.679148,0.32 L372.216593,0.24 L372.216593,0.24 Z" fill="#62758C"></path>
      <rect id="Rectangle-path" fill="#4D4D63" transform="translate(460.371021, 75.641277) rotate(0.173735) translate(-460.371021, -75.641277) " x="454.728925" y="60.641208" width="11.2841928" height="30.0001379"></rect>
    </g>
    <g class="scale-left-plate" data-svg-origin="87.0978934764862 90.65843415260315" transform="matrix(0.99904,-0.04361,0.04361,0.99904,-3.8715674619606233,3.885443495304628)" style="transform-origin: 0px 0px 0px;">
      <path d="M1.68061674,0.24 C0.480176211,0.24 -0.160058737,2.88 0.56020558,4.72 C14.2452276,37.92 47.8575624,61.2 87.1519824,61.12 C126.68649,61.04 160.378855,37.68 173.743759,4.24 C174.464023,2.32 173.103524,0.32 171.022761,0.32 L1.68061674,0.24 L1.68061674,0.24 Z" fill="#62758C"></path>
      <rect id="Rectangle-path" fill="#4D4D63" transform="translate(89.833364, 75.641329) rotate(0.173735) translate(-89.833364, -75.641329) " x="84.1912677" y="60.64126" width="11.2841928" height="30.0001379"></rect>
    </g>
    <g transform="translate(80.829662, 82.400000)" id="Shape">
        <path d="M202.394273,0.48 L5.20190896,0.64 C2.48091043,0.64 0.240088106,3.68 0.240088106,7.44 L0.240088106,7.44 C0.240088106,10.56 1.84067548,13.28 4.00146843,14 L381.339941,13.68 C383.580764,12.96 385.101322,10.24 385.101322,7.12 L385.101322,7.12 C385.101322,3.36 382.860499,0.32 380.139501,0.32 L202.394273,0.48 L202.394273,0.48 Z" fill="#4D4D63"></path>
        <path d="M382.78047,5.92 C383.260646,8.24 381.820117,10.56 379.659325,11.04 C377.498532,11.52 375.257709,10.08 374.857562,7.76 C374.377386,5.44 375.817915,3.12 377.978708,2.64 C380.139501,2.16 382.300294,3.6 382.78047,5.92 L382.78047,5.92 Z" fill="#F39200"></path>
        <path d="M13.1248164,6.56 C13.6049927,8.88 12.164464,11.2 10.0036711,11.68 C7.84287812,12.16 5.6020558,10.72 5.20190896,8.4 C4.72173275,6.08 6.16226138,3.76 8.32305433,3.28 C10.4838473,2.8 12.6446402,4.24 13.1248164,6.56 L13.1248164,6.56 Z" fill="#F39200"></path>
    </g>
  </g>
  <g id="scale-base" transform="translate(93.634361, 29.000000)">
    <path d="M196.632159,106 L161.099119,106 L161.099119,18.24 C161.099119,8.4 169.022026,0.48 178.865639,0.48 L178.865639,0.48 C188.709251,0.48 196.632159,8.4 196.632159,18.24 L196.632159,106 L196.632159,106 Z" id="Shape" fill="#62758C"></path>
    <path d="M357.091043,142.84 L0.56020558,142.84 L2.72099853,139.32 C15.6857562,118.36 38.4941263,105.56 63.1431718,105.56 L294.428047,105.56 C319.237151,105.56 342.285609,118.52 355.170338,139.8 L357.091043,142.84 L357.091043,142.84 Z" id="Shape" fill="#4D4D63"></path>
    <ellipse id="Oval" fill="#F39200" transform="translate(178.863430, 60.276208) rotate(-12.145980) translate(-178.863430, -60.276208) " cx="178.86343" cy="60.276208" rx="7.60267567" ry="7.5998857"></ellipse>
  </g>
</svg>