<svg width="188" height="71" viewBox="0 0 188 71" fill="none" xmlns="http://www.w3.org/2000/svg">
<path d="M16.9688 66.6641C18.0104 66.6641 19.0391 66.4688 20.0547 66.0781C21.0703 65.7135 21.9688 65.0885 22.75 64.2031C23.5573 63.3438 24.2083 62.2109 24.7031 60.8047C25.1979 59.3984 25.4453 57.6797 25.4453 55.6484C25.4453 53.4609 24.8984 51.3385 23.8047 49.2812C22.737 47.224 21.3828 45.2057 19.7422 43.2266C18.1276 41.2214 16.3698 39.2422 14.4688 37.2891C12.5938 35.3099 10.8359 33.3047 9.19531 31.2734C7.58073 29.2161 6.22656 27.1068 5.13281 24.9453C4.0651 22.7578 3.53125 20.4792 3.53125 18.1094C3.53125 15.7396 3.96094 13.6042 4.82031 11.7031C5.70573 9.77604 6.89062 8.14844 8.375 6.82031C9.88542 5.46615 11.6302 4.42448 13.6094 3.69531C15.6146 2.96615 17.75 2.60156 20.0156 2.60156C22.4375 2.60156 24.5859 2.86198 26.4609 3.38281C28.362 3.8776 29.9635 4.56771 31.2656 5.45312C32.5938 6.3125 33.5964 7.34115 34.2734 8.53906C34.9505 9.71094 35.2891 10.9609 35.2891 12.2891C35.2891 12.9141 35.1979 13.5651 35.0156 14.2422C34.8333 14.8932 34.5469 15.4922 34.1562 16.0391C33.7656 16.5859 33.2708 17.0417 32.6719 17.4062C32.0729 17.7708 31.3698 17.9531 30.5625 17.9531C29.599 17.9531 28.8828 17.6667 28.4141 17.0938C27.9714 16.4948 27.6328 15.7656 27.3984 14.9062C27.1901 14.0469 27.0078 13.1094 26.8516 12.0938C26.6953 11.0521 26.4479 10.1016 26.1094 9.24219C25.7708 8.38281 25.263 7.66667 24.5859 7.09375C23.9089 6.49479 22.9193 6.19531 21.6172 6.19531C20.9141 6.19531 20.2109 6.35156 19.5078 6.66406C18.8307 6.97656 18.2057 7.45833 17.6328 8.10938C17.0859 8.73438 16.6432 9.54167 16.3047 10.5312C15.9661 11.5208 15.7969 12.6927 15.7969 14.0469C15.7969 15.6094 16.1224 17.1328 16.7734 18.6172C17.4245 20.1016 18.2839 21.5729 19.3516 23.0312C20.4193 24.4635 21.6302 25.9089 22.9844 27.3672C24.3646 28.7995 25.7578 30.2578 27.1641 31.7422C28.5964 33.2005 29.9896 34.7109 31.3438 36.2734C32.724 37.8099 33.9479 39.4115 35.0156 41.0781C36.0833 42.7448 36.9427 44.4896 37.5938 46.3125C38.2448 48.1354 38.5703 50.0495 38.5703 52.0547C38.5703 54.9974 37.9974 57.6276 36.8516 59.9453C35.7318 62.237 34.1953 64.1641 32.2422 65.7266C30.3151 67.3151 28.0495 68.526 25.4453 69.3594C22.8411 70.1927 20.0677 70.6094 17.125 70.6094C14.4688 70.6094 12.112 70.2708 10.0547 69.5938C8.02344 68.9427 6.30469 68.0703 4.89844 66.9766C3.49219 65.8828 2.42448 64.6328 1.69531 63.2266C0.992188 61.8464 0.640625 60.4141 0.640625 58.9297C0.640625 58.3047 0.731771 57.6406 0.914062 56.9375C1.1224 56.2083 1.40885 55.5443 1.77344 54.9453C2.16406 54.3464 2.64583 53.8516 3.21875 53.4609C3.79167 53.0443 4.45573 52.8359 5.21094 52.8359C5.99219 52.8359 6.61719 53.0312 7.08594 53.4219C7.58073 53.8125 7.97135 54.3333 8.25781 54.9844C8.54427 55.6354 8.77865 56.3776 8.96094 57.2109C9.14323 58.0443 9.33854 58.8906 9.54688 59.75C9.75521 60.6094 10.0156 61.4557 10.3281 62.2891C10.6406 63.1224 11.0703 63.8646 11.6172 64.5156C12.1641 65.1667 12.8672 65.6875 13.7266 66.0781C14.5859 66.4688 15.6667 66.6641 16.9688 66.6641ZM58.6484 23.8125V52.6797C58.6484 54.0599 58.9089 55.0234 59.4297 55.5703C59.9505 56.0911 60.6667 56.3516 61.5781 56.3516C62.2812 56.3516 62.9062 56.1562 63.4531 55.7656C64 55.375 64.4688 54.9323 64.8594 54.4375C65.3281 53.8906 65.7318 53.2526 66.0703 52.5234L67.2812 53.0703C66.8906 53.9036 66.4219 54.8151 65.875 55.8047C65.3542 56.7943 64.651 57.7188 63.7656 58.5781C62.8802 59.4115 61.7604 60.1146 60.4062 60.6875C59.0781 61.2604 57.3984 61.5469 55.3672 61.5469C54.2214 61.5469 53.1146 61.3776 52.0469 61.0391C51.0052 60.7005 50.0677 60.1667 49.2344 59.4375C48.4271 58.7083 47.776 57.7969 47.2812 56.7031C46.7865 55.6094 46.5391 54.2943 46.5391 52.7578V23.8125H42.1641V21C42.8932 21 43.9089 20.8177 45.2109 20.4531C46.513 20.0625 47.8411 19.4245 49.1953 18.5391C50.5755 17.6536 51.8516 16.4688 53.0234 14.9844C54.1953 13.5 55.0286 11.6641 55.5234 9.47656H58.6484V21H65.0156C67.099 21 68.1406 20.6484 68.1406 19.9453C68.1406 19.6849 68.0104 19.5156 67.75 19.4375C67.4896 19.3333 67.1901 19.2161 66.8516 19.0859C66.5391 18.9297 66.2526 18.7214 65.9922 18.4609C65.7318 18.2005 65.6016 17.7708 65.6016 17.1719C65.6016 16.4427 65.8229 15.8698 66.2656 15.4531C66.7344 15.0365 67.3333 14.8281 68.0625 14.8281C68.5312 14.8281 68.9349 14.9323 69.2734 15.1406C69.638 15.3229 69.9375 15.5833 70.1719 15.9219C70.4062 16.2344 70.5755 16.599 70.6797 17.0156C70.8099 17.4323 70.875 17.849 70.875 18.2656C70.875 19.9583 70.3802 21.3125 69.3906 22.3281C68.4271 23.3177 66.8646 23.8125 64.7031 23.8125H58.6484Z" fill="#1B82D4"/>
<path d="M83.0234 43.0703C83.0234 43.9036 83.1406 44.8151 83.375 45.8047C83.6354 46.7682 84 47.7448 84.4688 48.7344C84.9375 49.724 85.5104 50.6745 86.1875 51.5859C86.8906 52.4714 87.6849 53.2656 88.5703 53.9688C89.4818 54.6719 90.4844 55.2318 91.5781 55.6484C92.6719 56.0651 93.8698 56.2734 95.1719 56.2734C96.0833 56.2734 96.9297 56.1693 97.7109 55.9609C98.4922 55.7526 99.2214 55.4661 99.8984 55.1016C100.576 54.737 101.227 54.3203 101.852 53.8516C102.477 53.3568 103.102 52.8359 103.727 52.2891L104.703 53.2266C104.104 54.0339 103.336 54.9193 102.398 55.8828C101.461 56.8464 100.328 57.7578 99 58.6172C97.6719 59.4505 96.1224 60.1536 94.3516 60.7266C92.5807 61.2734 90.5625 61.5469 88.2969 61.5469C86.0312 61.5469 83.8177 61.1432 81.6562 60.3359C79.5208 59.5026 77.6198 58.2656 75.9531 56.625C74.2865 54.9844 72.9453 52.9401 71.9297 50.4922C70.9401 48.0443 70.4453 45.1797 70.4453 41.8984C70.4453 39.5286 70.7448 37.3542 71.3438 35.375C71.9427 33.3958 72.75 31.612 73.7656 30.0234C74.8073 28.4349 76.0052 27.0417 77.3594 25.8438C78.7396 24.6458 80.1849 23.6562 81.6953 22.875C83.2057 22.0677 84.7422 21.4688 86.3047 21.0781C87.8932 20.6615 89.4167 20.4531 90.875 20.4531C92.8021 20.4531 94.4818 20.6615 95.9141 21.0781C97.3464 21.4948 98.5312 22.0547 99.4688 22.7578C100.432 23.4609 101.148 24.2812 101.617 25.2188C102.086 26.1302 102.32 27.0938 102.32 28.1094C102.32 29.3333 101.969 30.4401 101.266 31.4297C100.562 32.3932 99.625 33.2396 98.4531 33.9688L83.0234 43.0703ZM90.875 35.1406C91.2135 34.9323 91.487 34.737 91.6953 34.5547C91.9297 34.3464 92.112 34.112 92.2422 33.8516C92.3724 33.5651 92.4635 33.2266 92.5156 32.8359C92.5938 32.4193 92.6328 31.9115 92.6328 31.3125C92.6328 30.6615 92.5547 29.9453 92.3984 29.1641C92.2682 28.3568 92.0339 27.6016 91.6953 26.8984C91.3568 26.1953 90.9271 25.6094 90.4062 25.1406C89.8854 24.6719 89.2604 24.4375 88.5312 24.4375C87.5938 24.4375 86.7865 24.724 86.1094 25.2969C85.4583 25.8438 84.9115 26.5599 84.4688 27.4453C84.0521 28.3307 83.7135 29.3464 83.4531 30.4922C83.2188 31.612 83.0365 32.7448 82.9062 33.8906C82.776 35.0365 82.6979 36.1432 82.6719 37.2109C82.6458 38.2526 82.6328 39.138 82.6328 39.8672L90.875 35.1406ZM121.266 57.5625C121.266 57.901 121.201 58.3047 121.07 58.7734C120.966 59.2422 120.693 59.6849 120.25 60.1016C119.833 60.5182 119.208 60.8698 118.375 61.1562C117.568 61.4688 116.474 61.625 115.094 61.625C113.714 61.625 112.633 61.4557 111.852 61.1172C111.07 60.8047 110.484 60.4271 110.094 59.9844C109.729 59.5417 109.495 59.0859 109.391 58.6172C109.312 58.1484 109.273 57.7708 109.273 57.4844V7.09375C109.273 6.33854 109.091 5.6875 108.727 5.14062C108.388 4.56771 107.802 4.28125 106.969 4.28125C106.526 4.28125 106.135 4.35938 105.797 4.51562C105.484 4.64583 105.146 4.85417 104.781 5.14062L104 4.20312C104.599 3.70833 105.263 3.22656 105.992 2.75781C106.721 2.26302 107.516 1.83333 108.375 1.46875C109.26 1.10417 110.198 0.804688 111.188 0.570312C112.177 0.335938 113.219 0.21875 114.312 0.21875C116.005 0.21875 117.32 0.453125 118.258 0.921875C119.195 1.36458 119.885 1.92448 120.328 2.60156C120.771 3.2526 121.031 3.95573 121.109 4.71094C121.214 5.4401 121.266 6.09115 121.266 6.66406V57.5625Z" fill="#6EC592"/>
<path d="M143.219 57.5625C143.219 57.901 143.154 58.3047 143.023 58.7734C142.919 59.2422 142.646 59.6849 142.203 60.1016C141.786 60.5182 141.161 60.8698 140.328 61.1562C139.521 61.4688 138.427 61.625 137.047 61.625C135.667 61.625 134.586 61.4557 133.805 61.1172C133.023 60.8047 132.438 60.4271 132.047 59.9844C131.682 59.5417 131.448 59.0859 131.344 58.6172C131.266 58.1484 131.227 57.7708 131.227 57.4844V7.09375C131.227 6.33854 131.044 5.6875 130.68 5.14062C130.341 4.56771 129.755 4.28125 128.922 4.28125C128.479 4.28125 128.089 4.35938 127.75 4.51562C127.438 4.64583 127.099 4.85417 126.734 5.14062L125.953 4.20312C126.552 3.70833 127.216 3.22656 127.945 2.75781C128.674 2.26302 129.469 1.83333 130.328 1.46875C131.214 1.10417 132.151 0.804688 133.141 0.570312C134.13 0.335938 135.172 0.21875 136.266 0.21875C137.958 0.21875 139.273 0.453125 140.211 0.921875C141.148 1.36458 141.839 1.92448 142.281 2.60156C142.724 3.2526 142.984 3.95573 143.062 4.71094C143.167 5.4401 143.219 6.09115 143.219 6.66406V57.5625ZM170.68 40.7656C170.68 40.1146 170.471 39.6198 170.055 39.2812C169.638 38.9427 169.104 38.7734 168.453 38.7734C167.542 38.7734 166.669 38.9818 165.836 39.3984C165.029 39.8151 164.312 40.4271 163.688 41.2344C163.062 42.0417 162.568 43.0443 162.203 44.2422C161.839 45.4141 161.656 46.7812 161.656 48.3438C161.656 49.8542 161.76 51.1042 161.969 52.0938C162.203 53.0833 162.503 53.8776 162.867 54.4766C163.258 55.0495 163.701 55.4531 164.195 55.6875C164.69 55.9219 165.211 56.0391 165.758 56.0391C166.435 56.0391 167.073 55.8698 167.672 55.5312C168.271 55.1667 168.792 54.7109 169.234 54.1641C169.677 53.6172 170.029 53.0052 170.289 52.3281C170.549 51.651 170.68 50.974 170.68 50.2969V40.7656ZM164.469 23.6562C163.583 23.6562 162.763 23.7604 162.008 23.9688C161.253 24.1771 160.602 24.4375 160.055 24.75C159.508 25.0625 159.078 25.4141 158.766 25.8047C158.453 26.1693 158.297 26.5208 158.297 26.8594C158.297 27.25 158.492 27.5365 158.883 27.7188C159.299 27.875 159.755 28.0703 160.25 28.3047C160.745 28.513 161.188 28.8255 161.578 29.2422C161.995 29.6328 162.203 30.2448 162.203 31.0781C162.203 31.625 162.086 32.1328 161.852 32.6016C161.643 33.0443 161.344 33.4479 160.953 33.8125C160.589 34.151 160.146 34.4245 159.625 34.6328C159.13 34.8151 158.609 34.9062 158.062 34.9062C156.604 34.9062 155.419 34.4115 154.508 33.4219C153.622 32.4323 153.18 31.1172 153.18 29.4766C153.18 27.888 153.596 26.5339 154.43 25.4141C155.263 24.2682 156.344 23.3307 157.672 22.6016C159.026 21.8724 160.549 21.3385 162.242 21C163.935 20.6354 165.628 20.4531 167.32 20.4531C169.352 20.4531 171.292 20.6745 173.141 21.1172C174.99 21.5599 176.617 22.263 178.023 23.2266C179.456 24.1901 180.589 25.4141 181.422 26.8984C182.281 28.3828 182.711 30.1797 182.711 32.2891V54.3594C182.711 54.5938 182.724 54.8542 182.75 55.1406C182.776 55.4271 182.841 55.6875 182.945 55.9219C183.049 56.1562 183.206 56.3516 183.414 56.5078C183.622 56.6641 183.922 56.7422 184.312 56.7422C184.781 56.7422 185.211 56.5729 185.602 56.2344C186.018 55.8698 186.383 55.5052 186.695 55.1406L187.672 55.9609C187.281 56.5078 186.812 57.1068 186.266 57.7578C185.719 58.4089 185.055 59.0208 184.273 59.5938C183.492 60.1667 182.581 60.6484 181.539 61.0391C180.497 61.4297 179.312 61.625 177.984 61.625C176.344 61.625 174.885 61.1432 173.609 60.1797C172.333 59.1901 171.5 57.6797 171.109 55.6484C170.276 56.7682 169.404 57.7057 168.492 58.4609C167.607 59.2161 166.695 59.8281 165.758 60.2969C164.82 60.7656 163.87 61.1042 162.906 61.3125C161.969 61.5208 161.018 61.625 160.055 61.625C158.805 61.625 157.594 61.4297 156.422 61.0391C155.25 60.6484 154.195 60.0365 153.258 59.2031C152.346 58.3438 151.604 57.237 151.031 55.8828C150.484 54.5286 150.211 52.875 150.211 50.9219C150.211 48.5521 150.68 46.612 151.617 45.1016C152.555 43.5911 153.779 42.3281 155.289 41.3125C156.826 40.2708 158.557 39.3854 160.484 38.6562C162.438 37.9271 164.43 37.1589 166.461 36.3516C167.971 35.7526 169.065 34.8672 169.742 33.6953C170.445 32.4974 170.797 31.2734 170.797 30.0234C170.797 28.0964 170.224 26.5599 169.078 25.4141C167.958 24.2422 166.422 23.6562 164.469 23.6562Z" fill="#F05A28"/>
</svg>
