<svg width="80" height="80" viewBox="0 0 80 80" fill="none" xmlns="http://www.w3.org/2000/svg">
<circle cx="40" cy="40" r="40" fill="#57576D"/>
<path fill-rule="evenodd" clip-rule="evenodd" d="M55.9829 21.2037C55.2669 20.4878 54.1061 20.4878 53.3902 21.2037L51.7909 22.803C49.7465 21.8264 47.2237 22.1848 45.5303 23.8781L26.0849 43.3235L36.4558 53.6944L55.9012 34.249C57.5946 32.5557 57.9529 30.0329 56.9763 27.9885L58.5756 26.3892C59.2916 25.6732 59.2916 24.5124 58.5756 23.7964L55.9829 21.2037ZM48.1582 36.8065L36.4558 48.509L31.2703 43.3235L42.9728 31.6211L48.1582 36.8065ZM51.4917 33.473L53.3085 31.6563C54.0245 30.9403 54.0245 29.7795 53.3085 29.0635L50.7158 26.4708C49.9998 25.7549 48.839 25.7549 48.1231 26.4708L46.3063 28.2876L51.4917 33.473Z" fill="white"/>
<path d="M20.6665 59.0755L24.5563 44.8148L34.9265 55.1864L20.6665 59.0755Z" fill="white"/>
</svg>
