<svg width="50" height="50" viewBox="0 0 50 50" fill="none" xmlns="http://www.w3.org/2000/svg">
<path d="M25 0C11.1923 0 0 11.1923 0 25C0 38.8077 11.1923 50 25 50C38.8077 50 50 38.8077 50 25C50 11.1923 38.8077 0 25 0ZM25 46.0938C13.3499 46.0938 3.90625 36.6501 3.90625 25C3.90625 13.3499 13.3499 3.90625 25 3.90625C36.6501 3.90625 46.0938 13.3499 46.0938 25C46.0938 36.6501 36.6501 46.0938 25 46.0938Z" fill="white"/>
<path d="M21.9133 21.921L22.5938 19.2034L14.0977 14.1055L19.1942 22.6016L21.9133 21.921Z" fill="white"/>
<path d="M30.7892 22.5754L35.8521 14.0625L27.3926 19.1803L28.0762 21.9086L30.7892 22.5754Z" fill="white"/>
<path d="M28.0944 28.0715L27.4244 30.7952L35.9373 35.8611L30.8074 27.3818L28.0944 28.0715Z" fill="white"/>
<path d="M19.1942 27.4092L14.0977 35.9037L22.6122 30.792L21.9255 28.0897L19.1942 27.4092Z" fill="white"/>
<path d="M25 12.5L22.5006 22.4991L12.5 25L22.5098 27.5024L25.0488 37.5L27.5131 27.4856L37.5 24.9512L27.4979 22.4899L25 12.5ZM25 26.5625C24.1379 26.5625 23.4375 25.8621 23.4375 25C23.4375 24.1379 24.1379 23.4375 25 23.4375C25.8621 23.4375 26.5625 24.1379 26.5625 25C26.5625 25.8621 25.8621 26.5625 25 26.5625Z" fill="white"/>
</svg>
