<svg width="22" height="22" viewBox="0 0 22 22" fill="none" xmlns="http://www.w3.org/2000/svg">
<path fill-rule="evenodd" clip-rule="evenodd" d="M2.75895 4.35136C2.75895 3.8451 3.16936 3.43469 3.67562 3.43469H18.3333C18.8396 3.43469 19.25 3.8451 19.25 4.35136V14.7319C19.25 15.7444 18.4292 16.5652 17.4167 16.5652H4.58333C3.57081 16.5652 2.75 15.7444 2.75 14.7319V4.64856C2.75 4.60491 2.75305 4.56197 2.75895 4.51994V4.35136ZM4.3 6.3898V15H17.85V6.39012L12.9447 10.8621C11.8708 11.936 10.1296 11.936 9.05561 10.8621L4.3 6.3898ZM5 4.94997H17.25L11.6483 9.56572C11.2904 9.9237 10.71 9.9237 10.352 9.56572L5 4.94997Z" fill="#939393"/>
</svg>
