<svg width="22" height="22" viewBox="0 0 22 22" fill="none" xmlns="http://www.w3.org/2000/svg">
<path fill-rule="evenodd" clip-rule="evenodd" d="M14.6666 8.24996C14.6666 10.275 13.025 11.9166 11 11.9166C8.97491 11.9166 7.33329 10.275 7.33329 8.24996C7.33329 6.22492 8.97491 4.58329 11 4.58329C13.025 4.58329 14.6666 6.22492 14.6666 8.24996ZM12.8333 8.24996C12.8333 9.26248 12.0125 10.0833 11 10.0833C9.98744 10.0833 9.16663 9.26248 9.16663 8.24996C9.16663 7.23744 9.98744 6.41663 11 6.41663C12.0125 6.41663 12.8333 7.23744 12.8333 8.24996Z" fill="#939393"/>
<path fill-rule="evenodd" clip-rule="evenodd" d="M11 0.916626C5.43109 0.916626 0.916626 5.43109 0.916626 11C0.916626 16.5688 5.43109 21.0833 11 21.0833C16.5688 21.0833 21.0833 16.5688 21.0833 11C21.0833 5.43109 16.5688 0.916626 11 0.916626ZM2.74996 11C2.74996 12.916 3.40313 14.6795 4.49894 16.0799C6.00637 14.1064 8.38404 12.8333 11.0591 12.8333C13.6994 12.8333 16.05 14.0736 17.5601 16.0034C18.6202 14.6155 19.25 12.8813 19.25 11C19.25 6.44361 15.5563 2.74996 11 2.74996C6.44361 2.74996 2.74996 6.44361 2.74996 11ZM11 19.25C9.02891 19.25 7.21931 18.5587 5.80032 17.4055C6.96069 15.7494 8.88343 14.6666 11.0591 14.6666C13.2077 14.6666 15.1097 15.7227 16.2742 17.3441C14.8443 18.5342 13.0057 19.25 11 19.25Z" fill="#939393"/>
</svg>
