<svg width="31" height="24" viewBox="0 0 31 24" fill="none" xmlns="http://www.w3.org/2000/svg">
<path d="M0.266118 2C0.266118 1.07953 1.11766 0.333336 2.1681 0.333336H28.7959C29.8463 0.333336 30.6978 1.07953 30.6978 2C30.6978 2.92048 29.8463 3.66667 28.7959 3.66667H2.1681C1.11766 3.66667 0.266118 2.92048 0.266118 2Z" fill="white"/>
<path d="M0.266118 22C0.266118 21.0795 1.11766 20.3333 2.1681 20.3333H28.7959C29.8463 20.3333 30.6978 21.0795 30.6978 22C30.6978 22.9205 29.8463 23.6667 28.7959 23.6667H2.1681C1.11766 23.6667 0.266118 22.9205 0.266118 22Z" fill="white"/>
<path d="M2.1681 10.3333C1.11766 10.3333 0.266114 11.0795 0.266114 12C0.266114 12.9205 1.11766 13.6667 2.1681 13.6667H28.7959C29.8463 13.6667 30.6978 12.9205 30.6978 12C30.6978 11.0795 29.8463 10.3333 28.7959 10.3333H2.1681Z" fill="white"/>
</svg>
