<svg width="23" height="23" viewBox="0 0 23 23" fill="none" xmlns="http://www.w3.org/2000/svg">
<path fill-rule="evenodd" clip-rule="evenodd" d="M21.0355 0.483988C20.6125 0.0609201 19.9265 0.06092 19.5035 0.483988L18.5584 1.42904C17.3504 0.851943 15.8596 1.0637 14.859 2.0643L3.36853 13.5548L9.49679 19.683L20.9873 8.19256C21.9879 7.19196 22.1996 5.70122 21.6225 4.49317L22.5676 3.54812C22.9907 3.12505 22.9907 2.43912 22.5676 2.01605L21.0355 0.483988ZM16.4119 9.70384L9.49679 16.6189L6.43266 13.5548L13.3477 6.63971L16.4119 9.70384ZM18.3817 7.73404L19.4552 6.6605C19.8783 6.23743 19.8783 5.5515 19.4552 5.12843L17.9231 3.59637C17.5001 3.1733 16.8141 3.1733 16.3911 3.59637L15.3175 4.66991L18.3817 7.73404Z" fill="#CBCBCB"/>
<path d="M0.166748 22.8628L2.46527 14.436L8.5931 20.5647L0.166748 22.8628Z" fill="#CBCBCB"/>
</svg>
