<svg width="18" height="18" viewBox="0 0 18 18" fill="none" xmlns="http://www.w3.org/2000/svg">
<path d="M15.5402 6.00003L5.88021 0.460026C5.3575 0.158186 4.76421 6.39946e-05 4.16061 0.00172189C3.557 0.00337978 2.96459 0.164758 2.44354 0.469465C1.92249 0.774173 1.49137 1.21135 1.19396 1.7366C0.89655 2.26185 0.743452 2.85646 0.750215 3.46003V14.58C0.750215 15.4871 1.11053 16.357 1.75191 16.9983C2.39328 17.6397 3.26317 18 4.17021 18C4.77065 17.999 5.3603 17.8404 5.88021 17.54L15.5402 12C16.0593 11.6996 16.4902 11.268 16.7898 10.7485C17.0894 10.2289 17.2471 9.63975 17.2471 9.04003C17.2471 8.4403 17.0894 7.85112 16.7898 7.33159C16.4902 6.81206 16.0593 6.38044 15.5402 6.08003V6.00003Z" fill="#313132"/>
</svg>
