<svg width="80" height="80" viewBox="0 0 80 80" fill="none" xmlns="http://www.w3.org/2000/svg">
<circle cx="40" cy="40" r="40" fill="#57576D"/>
<path d="M56.571 21.1429L31.999 21.1428C30.9382 21.1428 29.9208 21.5642 29.1706 22.3144C28.4205 23.0645 27.999 24.082 27.999 25.1428V49.7143C27.999 50.7752 28.4205 51.7926 29.1706 52.5428C29.9208 53.2929 30.9382 53.7143 31.999 53.7143H56.571C57.6319 53.7143 58.6493 53.2929 59.3995 52.5428C60.1496 51.7926 60.571 50.7752 60.571 49.7143V25.1429C60.571 24.082 60.1496 23.0646 59.3995 22.3145C58.6493 21.5643 57.6319 21.1429 56.571 21.1429ZM57.1419 50.2858H31.4276V24.5715H57.1419V50.2858ZM48.571 57.1429L48.5704 60.5714H25.1426C24.0817 60.5714 23.0643 60.15 22.3142 59.3998C21.564 58.6497 21.1426 57.6323 21.1426 56.5714L21.1432 31.4285H24.571V57.1429H48.571ZM53.631 33.2629L51.511 31.1429L41.751 40.9029L37.511 36.6629L35.391 38.7829L41.751 45.1429L53.631 33.2629Z" fill="white"/>
</svg>
