<svg width="23" height="23" viewBox="0 0 23 23" fill="none" xmlns="http://www.w3.org/2000/svg">
<path d="M20.6666 5.36442e-05L6.33294 0C5.7141 0 5.1206 0.245833 4.68302 0.683417C4.24544 1.121 3.9996 1.71449 3.9996 2.33333V16.6667C3.9996 17.2856 4.24544 17.8791 4.68302 18.3166C5.1206 18.7542 5.7141 19.0001 6.33294 19.0001H20.6666C21.2854 19.0001 21.8789 18.7542 22.3165 18.3166C22.7541 17.8791 22.9999 17.2856 22.9999 16.6667V2.33339C22.9999 1.71455 22.7541 1.12106 22.3165 0.683471C21.8789 0.245886 21.2854 5.36442e-05 20.6666 5.36442e-05ZM20.9996 17.0001H5.9996V2.00005H20.9996V17.0001ZM15.9999 21.0001L15.9996 23H2.33333C1.71449 23 1.121 22.7542 0.683417 22.3166C0.245833 21.879 0 21.2855 0 20.6667L0.000347137 6H1.99993V21.0001H15.9999ZM18.9516 7.07006L17.7149 5.83339L12.0216 11.5267L9.54826 9.05339L8.3116 10.2901L12.0216 14.0001L18.9516 7.07006Z" fill="#313132"/>
</svg>
