<svg width="80" height="80" viewBox="0 0 80 80" fill="none" xmlns="http://www.w3.org/2000/svg">
<circle cx="40" cy="40" r="40" fill="#57576D"/>
<g clip-path="url(#clip0)">
<path d="M62.4238 21.6553C62.4807 21.5744 62.4868 21.4672 62.4402 21.3801C62.3923 21.2924 62.2991 21.2391 62.2002 21.2429L59.1122 21.3562C59.0253 21.3592 58.9443 21.3202 58.8919 21.2511L57.0488 18.7722C56.9888 18.6919 56.8897 18.6528 56.7924 18.671C56.6933 18.6889 56.6139 18.761 56.587 18.857L55.7036 21.9606L52.6458 22.9923C52.5512 23.0245 52.4822 23.107 52.4702 23.2053C52.4566 23.3044 52.5002 23.4018 52.5828 23.4574L55.1473 25.1804C55.2191 25.2285 55.2612 25.3086 55.2628 25.3941L55.2971 28.4842C55.2987 28.5834 55.3556 28.6739 55.4456 28.7167C55.5356 28.7602 55.642 28.7482 55.72 28.6867L58.1524 26.7798C58.22 26.7267 58.3101 26.7101 58.3909 26.7363L61.3408 27.6579C61.4354 27.6879 61.5388 27.661 61.6078 27.589C61.6766 27.517 61.6977 27.4121 61.6646 27.3191L60.6014 24.4173C60.5729 24.3362 60.5849 24.2462 60.6344 24.1765L62.4238 21.6553Z" fill="white"/>
<path d="M27.9369 56.5996C27.8604 56.5607 27.8065 56.4865 27.7959 56.4009L27.46 53.8724C27.4481 53.7735 27.3789 53.6912 27.2861 53.6589C27.1915 53.6273 27.0866 53.6513 27.0161 53.7219L25.2135 55.5284C25.1521 55.589 25.0651 55.6168 24.9809 55.601L22.4706 55.1389C22.3731 55.121 22.274 55.1601 22.2141 55.2395C22.1541 55.3197 22.145 55.4262 22.19 55.5148L23.3493 57.7882C23.3883 57.8646 23.3883 57.9556 23.3464 58.0312L22.1316 60.2757C22.0851 60.3626 22.0911 60.4696 22.148 60.5508C22.2065 60.6316 22.3041 60.6737 22.4029 60.6579L24.924 60.2569C25.0095 60.2433 25.0965 60.2725 25.1549 60.3347L26.914 62.1839C26.983 62.2558 27.0865 62.2828 27.1826 62.2535C27.2769 62.2236 27.3474 62.1426 27.3625 62.0444L27.7599 59.5235C27.7734 59.4387 27.8273 59.3652 27.9054 59.3285L30.2074 58.2262C30.2974 58.1836 30.3558 58.0929 30.3558 57.9938C30.3574 57.8942 30.3019 57.8025 30.2135 57.7576L27.9369 56.5996Z" fill="white"/>
<path d="M19.4686 24.7387C19.422 24.8265 19.428 24.9337 19.485 25.0146C19.5435 25.0957 19.6426 25.1376 19.7399 25.1218L21.4093 24.8564C21.4947 24.8428 21.5817 24.8722 21.6401 24.9344L22.8069 26.1588C22.8744 26.2307 22.9778 26.2578 23.0737 26.2286C23.1683 26.1985 23.2388 26.1176 23.2538 26.0193L23.5177 24.3494C23.5313 24.2646 23.5851 24.1912 23.6632 24.1545L25.1868 23.4249C25.2768 23.382 25.3353 23.2914 25.3353 23.1924C25.3368 23.0928 25.2811 23.0012 25.1927 22.9562L23.6856 22.1891C23.609 22.1501 23.5566 22.0757 23.5446 21.9904L23.3226 20.316C23.3092 20.2169 23.2401 20.1346 23.1472 20.1023C23.0527 20.0708 22.9477 20.0947 22.8773 20.1653L21.6836 21.3622C21.622 21.423 21.5352 21.4506 21.4511 21.435L19.7895 21.129C19.692 21.1109 19.5929 21.1499 19.533 21.2295C19.4731 21.3096 19.4641 21.4162 19.509 21.5047L20.2769 23.0103C20.3158 23.0869 20.3158 23.1776 20.2739 23.2534L19.4686 24.7387Z" fill="white"/>
<path d="M56.6213 36.7932L47.7522 34.7146C46.503 34.4223 45.7156 33.1857 45.9795 31.9298L47.3007 25.6407C47.3487 25.4098 47.2513 25.173 47.0547 25.0432C46.8568 24.9134 46.6005 24.9171 46.4085 25.0528L41.3725 28.5862C40.8294 28.9671 40.1531 29.102 39.5052 28.9589C38.8575 28.8155 38.3011 28.4069 37.9696 27.8326L33.1183 19.4179C32.9878 19.1921 32.7222 19.0819 32.4704 19.1509C32.2184 19.2191 32.0445 19.4485 32.046 19.7095L32.1255 30.047C32.136 31.3419 31.0997 32.4036 29.804 32.4262L23.4122 32.5378C23.1768 32.5424 22.9668 32.6902 22.8844 32.9105C22.8018 33.1318 22.8618 33.3808 23.0372 33.539L27.6219 37.6789C28.1107 38.1206 28.3927 38.7467 28.4002 39.405C28.4091 40.0641 28.1407 40.6956 27.6622 41.1484L19.0315 49.3103C18.8366 49.4948 18.7945 49.7895 18.9324 50.0206C19.069 50.2514 19.348 50.3573 19.603 50.2741L30.4487 46.7573C31.146 46.5316 31.9064 46.6417 32.5107 47.0549C33.1151 47.4681 33.493 48.1379 33.5365 48.8681L33.9671 56.3337C33.982 56.5863 34.1604 56.7992 34.4063 56.8586C34.6524 56.9177 34.9073 56.809 35.0364 56.5909L38.7749 50.2209L34.8353 41.5579C34.1769 40.11 34.8157 38.4034 36.263 37.745C36.6409 37.5726 37.0487 37.4862 37.4553 37.4862C37.7972 37.4862 38.1391 37.5471 38.4661 37.6693C39.1814 37.9369 39.7602 38.4782 40.0767 39.1734L45.2386 50.5207L55.8072 59.2999C56.0231 59.4799 56.3394 59.4763 56.5509 59.2908C56.7639 59.1063 56.8104 58.7944 56.662 58.5552L47.7207 44.1266C47.3458 43.5193 47.2634 42.7755 47.5003 42.1022C47.7357 41.4281 48.2637 40.8972 48.9355 40.6573L56.6829 37.8934C56.9228 37.8078 57.0772 37.5745 57.0638 37.3196C57.0489 37.0654 56.8689 36.8509 56.6213 36.7932Z" fill="white"/>
<path d="M38.6784 39.809C38.53 39.4822 38.263 39.2325 37.9271 39.1074C37.7757 39.0504 37.6166 39.0218 37.4547 39.0218C37.2627 39.0218 37.0736 39.0624 36.8983 39.1425C36.2249 39.4491 35.9266 40.248 36.2324 40.9219L45.7644 61.8786C45.9128 62.2054 46.1798 62.4544 46.5158 62.5804C46.6688 62.6373 46.8262 62.6666 46.9883 62.6666C47.1817 62.6666 47.3691 62.6261 47.5447 62.5461C47.8716 62.3976 48.1205 62.1305 48.2464 61.7946C48.3709 61.4588 48.3589 61.0937 48.2106 60.7665L38.6784 39.809Z" fill="white"/>
</g>
<defs>
<clipPath id="clip0">
<rect width="42.6667" height="42.6667" fill="white" transform="translate(20 20)"/>
</clipPath>
</defs>
</svg>
