<svg width="172" height="172" viewBox="0 0 172 172" fill="none" xmlns="http://www.w3.org/2000/svg">
<path opacity="0.99" d="M70.6464 123C69.4514 123.001 68.2679 122.768 67.164 122.313C66.0601 121.859 65.0575 121.191 64.2138 120.35L38.6244 94.9166C36.936 93.2173 35.9925 90.923 36 88.5348C36.0076 86.1465 36.9654 83.8582 38.6644 82.1693C40.3635 80.4805 42.6658 79.5284 45.0686 79.5209C47.4715 79.5133 49.7798 80.4509 51.4896 82.129L70.6461 101.169L120.51 51.6082C122.22 49.9301 124.529 48.9925 126.931 49C129.334 49.0076 131.637 49.9597 133.336 51.6485C135.035 53.3373 135.992 55.6257 136 58.014C136.007 60.4022 135.064 62.6965 133.376 64.3958L77.079 120.351C76.2352 121.192 75.2326 121.859 74.1287 122.313C73.0248 122.768 71.8413 123.001 70.6464 123Z" fill="#006F59"/>
<circle cx="86" cy="86" r="84" stroke="#006F59" stroke-width="4"/>
</svg>
