<svg width="15" height="26" viewBox="0 0 15 26" fill="none" xmlns="http://www.w3.org/2000/svg">
<path d="M8.16812 16.8267V5.41666C8.16812 5.10724 8.04521 4.81049 7.82641 4.5917C7.60762 4.37291 7.31088 4.24999 7.00146 4.24999C6.69204 4.24999 6.39529 4.37291 6.1765 4.5917C5.95771 4.81049 5.83479 5.10724 5.83479 5.41666V16.8267C5.48213 17.0303 5.1889 17.3226 4.98423 17.6746C4.77956 18.0267 4.67058 18.4261 4.66812 18.8333C4.66812 19.4522 4.91396 20.0457 5.35154 20.4832C5.78913 20.9208 6.38262 21.1667 7.00146 21.1667C7.6203 21.1667 8.21379 20.9208 8.65137 20.4832C9.08896 20.0457 9.33479 19.4522 9.33479 18.8333C9.33233 18.4261 9.22335 18.0267 9.01868 17.6746C8.81401 17.3226 8.52078 17.0303 8.16812 16.8267ZM12.2515 14.1667V5.41666C12.2515 4.02427 11.6983 2.68891 10.7138 1.70435C9.7292 0.71978 8.39384 0.166656 7.00146 0.166656C5.60907 0.166656 4.27371 0.71978 3.28915 1.70435C2.30458 2.68891 1.75146 4.02427 1.75146 5.41666V14.1667C0.945106 15.0804 0.391272 16.1888 0.144737 17.3823C-0.101798 18.5757 -0.0324904 19.8129 0.345803 20.9713C0.724097 22.1298 1.39827 23.1694 2.30163 23.9873C3.20499 24.8053 4.30625 25.3732 5.49646 25.635C5.99088 25.7477 6.49472 25.8141 7.00146 25.8333C8.35552 25.8396 9.68235 25.4531 10.8211 24.7205C11.9599 23.9879 12.8618 22.9408 13.4175 21.706C13.9731 20.4711 14.1587 19.1017 13.9518 17.7635C13.7448 16.4253 13.1542 15.1759 12.2515 14.1667ZM9.91812 22.415C9.30364 22.9146 8.57212 23.2496 7.79243 23.3885C7.01274 23.5273 6.21053 23.4655 5.46134 23.2088C4.71215 22.952 4.04062 22.5089 3.50998 21.921C2.97933 21.3331 2.60703 20.6198 2.42812 19.8483C2.24788 19.0685 2.27125 18.2553 2.496 17.4871C2.72074 16.7189 3.13931 16.0214 3.71146 15.4617C3.82169 15.3536 3.90939 15.2248 3.96947 15.0826C4.02955 14.9404 4.06081 14.7877 4.06146 14.6333V5.41666C4.06146 4.64311 4.36875 3.90124 4.91573 3.35426C5.46271 2.80728 6.20458 2.49999 6.97812 2.49999C7.75167 2.49999 8.49354 2.80728 9.04052 3.35426C9.5875 3.90124 9.89479 4.64311 9.89479 5.41666V14.68C9.89543 14.8343 9.9267 14.987 9.98678 15.1292C10.0469 15.2714 10.1346 15.4003 10.2448 15.5083C10.7217 15.969 11.0949 16.526 11.3396 17.1423C11.5843 17.7585 11.6949 18.4198 11.664 19.0822C11.6331 19.7445 11.4614 20.3927 11.1604 20.9834C10.8593 21.5742 10.4358 22.0941 9.91812 22.5083V22.415Z" fill="#CBCBCB"/>
</svg>
