<?xml version="1.0" encoding="utf-8"?>
<!-- Generator: Adobe Illustrator 26.1.0, SVG Export Plug-In . SVG Version: 6.00 Build 0)  -->
<svg version="1.1" id="Layer_1" xmlns="http://www.w3.org/2000/svg" xmlns:xlink="http://www.w3.org/1999/xlink" x="0px" y="0px"
	 viewBox="0 0 42 42" style="enable-background:new 0 0 42 42;" xml:space="preserve">
<style type="text/css">
	.st0{fill-rule:evenodd;clip-rule:evenodd;fill:#FFFFFF;}
	.st1{fill-rule:evenodd;clip-rule:evenodd;fill:#76BBAA;}
</style>
<path class="st0" d="M21.14,2.53c10.27,0,18.6,8.33,18.6,18.6c0,10.27-8.33,18.6-18.6,18.6c-10.27,0-18.6-8.33-18.6-18.6
	C2.54,10.86,10.86,2.53,21.14,2.53C21.14,2.53,21.14,2.53,21.14,2.53L21.14,2.53z"/>
<path class="st1" d="M21.14,1.22c10.99,0,19.91,8.91,19.91,19.91s-8.91,19.91-19.91,19.91S1.23,32.12,1.23,21.13l0,0
	C1.23,10.14,10.14,1.22,21.14,1.22z M21.14,3.36c9.82,0,17.77,7.96,17.77,17.77S30.95,38.9,21.13,38.9
	c-9.81,0-17.77-7.96-17.77-17.77C3.36,11.31,11.32,3.36,21.14,3.36C21.13,3.36,21.13,3.36,21.14,3.36L21.14,3.36z M10.4,21.34
	l2.9-3.19l9.55,8.8l-2.9,3.19L10.4,21.34z M19.67,24.05l9.47-10.29l3.19,2.9l-9.47,10.29L19.67,24.05z"/>
</svg>
